<?xml version="1.0"?>
<svg xmlns="http://www.w3.org/2000/svg" version="1.1" width="1267.5072021484375pt" height="807.53857421875pt" viewBox="-321.2668426118315 196.5307102203369 1267.5072565403266 807.5385904312134" preserveAspectRatio="none" xmlns:xlink="http://www.w3.org/1999/xlink">
  <defs>
  </defs>
  <path d="M409.7999572753906,312 L409.7999572753906,321.29998779296875 " stroke="#6E6E6E" fill="none" stroke-width="1" stroke-opacity="1" />
  <path d="M409.79998779296875,327 L407.5799865722656,321.29998779296875 L412.01995849609375,321.29998779296875 L409.79998779296875,327 " stroke="none" fill="#6E6E6E" fill-rule="evenodd" stroke-width="0" fill-opacity="1" />
  <path d="M409.79998779296875,327 L407.5799865722656,321.29998779296875 L412.01995849609375,321.29998779296875 L409.79998779296875,327 " stroke="#6E6E6E" fill="none" stroke-width="1" stroke-opacity="1" />
  <path d="M409.7999572753906,249.59999084472656 L409.7999572753906,258.8999938964844 " stroke="#6E6E6E" fill="none" stroke-width="1" stroke-opacity="1" />
  <path d="M409.79998779296875,264.6000061035156 L407.5799865722656,258.8999938964844 L412.01995849609375,258.8999938964844 L409.79998779296875,264.6000061035156 " stroke="none" fill="#6E6E6E" fill-rule="evenodd" stroke-width="0" fill-opacity="1" />
  <path d="M409.79998779296875,264.6000061035156 L407.5799865722656,258.8999938964844 L412.01995849609375,258.8999938964844 L409.79998779296875,264.6000061035156 " stroke="#6E6E6E" fill="none" stroke-width="1" stroke-opacity="1" />
  <path d="M365.0999755859375,436.8000183105469 L365.0999755859375,446.0999755859375 " stroke="#6E6E6E" fill="none" stroke-width="1" stroke-opacity="1" />
  <path d="M365.0999755859375,451.8000183105469 L362.8799743652344,446.1000061035156 L367.3199462890625,446.1000061035156 L365.0999755859375,451.8000183105469 " stroke="none" fill="#6E6E6E" fill-rule="evenodd" stroke-width="0" fill-opacity="1" />
  <path d="M365.0999755859375,451.8000183105469 L362.8799743652344,446.1000061035156 L367.3199462890625,446.1000061035156 L365.0999755859375,451.8000183105469 " stroke="#6E6E6E" fill="none" stroke-width="1" stroke-opacity="1" />
  <path d="M406.7999572753906,374.3999938964844 L386.9505615234375,386.4432678222656 " stroke="#6E6E6E" fill="none" stroke-width="1" stroke-opacity="1" />
  <path d="M382.0773620605469,389.3999938964844 L385.7989807128906,384.5453186035156 L388.10211181640625,388.34124755859375 L382.0773620605469,389.3999938964844 " stroke="none" fill="#6E6E6E" fill-rule="evenodd" stroke-width="0" fill-opacity="1" />
  <path d="M382.0773620605469,389.3999938964844 L385.7989807128906,384.5453186035156 L388.10211181640625,388.34124755859375 L382.0773620605469,389.3999938964844 " stroke="#6E6E6E" fill="none" stroke-width="1" stroke-opacity="1" />
  <path d="M496.1999816894531,561.5999755859375 L496.1999816894531,570.8999633789062 " stroke="#6E6E6E" fill="none" stroke-width="1" stroke-opacity="1" />
  <path d="M496.1999816894531,576.5999755859375 L493.97998046875,570.8999633789062 L498.4199523925781,570.8999633789062 L496.1999816894531,576.5999755859375 " stroke="none" fill="#6E6E6E" fill-rule="evenodd" stroke-width="0" fill-opacity="1" />
  <path d="M496.1999816894531,576.5999755859375 L493.97998046875,570.8999633789062 L498.4199523925781,570.8999633789062 L496.1999816894531,576.5999755859375 " stroke="#6E6E6E" fill="none" stroke-width="1" stroke-opacity="1" />
  <path d="M368.0999755859375,499.1999816894531 L487.5404968261719,513.5213623046875 " stroke="#6E6E6E" fill="none" stroke-width="1" stroke-opacity="1" />
  <path d="M493.199951171875,514.199951171875 L487.2762145996094,515.7255859375 L487.8047790527344,511.31719970703125 L493.199951171875,514.199951171875 " stroke="none" fill="#6E6E6E" fill-rule="evenodd" stroke-width="0" fill-opacity="1" />
  <path d="M493.199951171875,514.199951171875 L487.2762145996094,515.7255859375 L487.8047790527344,511.31719970703125 L493.199951171875,514.199951171875 " stroke="#6E6E6E" fill="none" stroke-width="1" stroke-opacity="1" />
  <path d="M496.1999816894531,686.3999633789062 L496.1999816894531,695.7000122070312 " stroke="#6E6E6E" fill="none" stroke-width="1" stroke-opacity="1" />
  <path d="M496.1999816894531,701.4000244140625 L493.97998046875,695.7000122070312 L498.4199523925781,695.7000122070312 L496.1999816894531,701.4000244140625 " stroke="none" fill="#6E6E6E" fill-rule="evenodd" stroke-width="0" fill-opacity="1" />
  <path d="M496.1999816894531,701.4000244140625 L493.97998046875,695.7000122070312 L498.4199523925781,695.7000122070312 L496.1999816894531,701.4000244140625 " stroke="#6E6E6E" fill="none" stroke-width="1" stroke-opacity="1" />
  <path d="M496.1999816894531,624 L496.1999816894531,633.2999877929688 " stroke="#6E6E6E" fill="none" stroke-width="1" stroke-opacity="1" />
  <path d="M496.1999816894531,639 L493.97998046875,633.2999877929688 L498.4199523925781,633.2999877929688 L496.1999816894531,639 " stroke="none" fill="#6E6E6E" fill-rule="evenodd" stroke-width="0" fill-opacity="1" />
  <path d="M496.1999816894531,639 L493.97998046875,633.2999877929688 L498.4199523925781,633.2999877929688 L496.1999816894531,639 " stroke="#6E6E6E" fill="none" stroke-width="1" stroke-opacity="1" />
  <path d="M496.1999816894531,811.199951171875 L496.1999816894531,820.5 " stroke="#6E6E6E" fill="none" stroke-width="1" stroke-opacity="1" />
  <path d="M496.1999816894531,826.2000122070312 L493.97998046875,820.5 L498.4199523925781,820.5 L496.1999816894531,826.2000122070312 " stroke="none" fill="#6E6E6E" fill-rule="evenodd" stroke-width="0" fill-opacity="1" />
  <path d="M496.1999816894531,826.2000122070312 L493.97998046875,820.5 L498.4199523925781,820.5 L496.1999816894531,826.2000122070312 " stroke="#6E6E6E" fill="none" stroke-width="1" stroke-opacity="1" />
  <path d="M496.1999816894531,748.7999877929688 L496.1999816894531,758.0999755859375 " stroke="#6E6E6E" fill="none" stroke-width="1" stroke-opacity="1" />
  <path d="M496.1999816894531,763.7999877929688 L493.97998046875,758.0999755859375 L498.4199523925781,758.0999755859375 L496.1999816894531,763.7999877929688 " stroke="none" fill="#6E6E6E" fill-rule="evenodd" stroke-width="0" fill-opacity="1" />
  <path d="M496.1999816894531,763.7999877929688 L493.97998046875,758.0999755859375 L498.4199523925781,758.0999755859375 L496.1999816894531,763.7999877929688 " stroke="#6E6E6E" fill="none" stroke-width="1" stroke-opacity="1" />
  <path d="M368.0999755859375,561.5999755859375 L389.61669921875,575.6659545898438 " stroke="#6E6E6E" fill="none" stroke-width="1" stroke-opacity="1" />
  <path d="M394.3876953125,578.7848510742188 L388.4019470214844,577.5241088867188 L390.8314208984375,573.8077392578125 L394.3876953125,578.7848510742188 " stroke="none" fill="#6E6E6E" fill-rule="evenodd" stroke-width="0" fill-opacity="1" />
  <path d="M394.3876953125,578.7848510742188 L388.4019470214844,577.5241088867188 L390.8314208984375,573.8077392578125 L394.3876953125,578.7848510742188 " stroke="#6E6E6E" fill="none" stroke-width="1" stroke-opacity="1" />
  <path d="M362.0999755859375,561.5999755859375 L340.583251953125,575.6659545898438 " stroke="#6E6E6E" fill="none" stroke-width="1" stroke-opacity="1" />
  <path d="M335.812255859375,578.7848510742188 L339.3685302734375,573.8078002929688 L341.7979736328125,577.524169921875 L335.812255859375,578.7848510742188 " stroke="none" fill="#6E6E6E" fill-rule="evenodd" stroke-width="0" fill-opacity="1" />
  <path d="M335.812255859375,578.7848510742188 L339.3685302734375,573.8078002929688 L341.7979736328125,577.524169921875 L335.812255859375,578.7848510742188 " stroke="#6E6E6E" fill="none" stroke-width="1" stroke-opacity="1" />
  <path d="M362.0999755859375,499.1999816894531 L363.98211669921875,508.6106872558594 " stroke="#6E6E6E" fill="none" stroke-width="1" stroke-opacity="1" />
  <path d="M365.0999755859375,514.199951171875 L361.80523681640625,509.0460205078125 L366.1590270996094,508.17529296875 L365.0999755859375,514.199951171875 " stroke="none" fill="#6E6E6E" fill-rule="evenodd" stroke-width="0" fill-opacity="1" />
  <path d="M365.0999755859375,514.199951171875 L361.80523681640625,509.0460205078125 L366.1590270996094,508.17529296875 L365.0999755859375,514.199951171875 " stroke="#6E6E6E" fill="none" stroke-width="1" stroke-opacity="1" />
  <path d="M52.19999694824219,686.3999633789062 L52.19999694824219,695.7000122070312 " stroke="#6E6E6E" fill="none" stroke-width="1" stroke-opacity="1" />
  <path d="M52.19999694824219,701.4000244140625 L49.97999572753906,695.7000122070312 L54.41999435424805,695.7000122070312 L52.19999694824219,701.4000244140625 " stroke="none" fill="#6E6E6E" fill-rule="evenodd" stroke-width="0" fill-opacity="1" />
  <path d="M52.19999694824219,701.4000244140625 L49.97999572753906,695.7000122070312 L54.41999435424805,695.7000122070312 L52.19999694824219,701.4000244140625 " stroke="#6E6E6E" fill="none" stroke-width="1" stroke-opacity="1" />
  <path d="M400.7999572753906,624 L95.06974792480469,655.622314453125 " stroke="#6E6E6E" fill="none" stroke-width="1" stroke-opacity="1" />
  <path d="M89.39999389648438,656.2086791992188 L94.84134674072266,653.4140625 L95.29814910888672,657.8305053710938 L89.39999389648438,656.2086791992188 " stroke="none" fill="#6E6E6E" fill-rule="evenodd" stroke-width="0" fill-opacity="1" />
  <path d="M89.39999389648438,656.2086791992188 L94.84134674072266,653.4140625 L95.29814910888672,657.8305053710938 L89.39999389648438,656.2086791992188 " stroke="#6E6E6E" fill="none" stroke-width="1" stroke-opacity="1" />
  <path d="M320.39996337890625,686.3999633789062 L320.39996337890625,695.7000122070312 " stroke="#6E6E6E" fill="none" stroke-width="1" stroke-opacity="1" />
  <path d="M320.3999938964844,701.4000244140625 L318.17999267578125,695.7000122070312 L322.6199645996094,695.7000122070312 L320.3999938964844,701.4000244140625 " stroke="none" fill="#6E6E6E" fill-rule="evenodd" stroke-width="0" fill-opacity="1" />
  <path d="M320.3999938964844,701.4000244140625 L318.17999267578125,695.7000122070312 L322.6199645996094,695.7000122070312 L320.3999938964844,701.4000244140625 " stroke="#6E6E6E" fill="none" stroke-width="1" stroke-opacity="1" />
  <path d="M412.7999572753906,624 L358.4677734375,638.5030517578125 " stroke="#6E6E6E" fill="none" stroke-width="1" stroke-opacity="1" />
  <path d="M352.9606018066406,639.9730834960938 L357.89520263671875,636.358154296875 L359.0403137207031,640.64794921875 L352.9606018066406,639.9730834960938 " stroke="none" fill="#6E6E6E" fill-rule="evenodd" stroke-width="0" fill-opacity="1" />
  <path d="M352.9606018066406,639.9730834960938 L357.89520263671875,636.358154296875 L359.0403137207031,640.64794921875 L352.9606018066406,639.9730834960938 " stroke="#6E6E6E" fill="none" stroke-width="1" stroke-opacity="1" />
  <path d="M141.59999084472656,811.199951171875 L141.59999084472656,820.5 " stroke="#6E6E6E" fill="none" stroke-width="1" stroke-opacity="1" />
  <path d="M141.59999084472656,826.2000122070312 L139.37998962402344,820.5 L143.81997680664062,820.5 L141.59999084472656,826.2000122070312 " stroke="none" fill="#6E6E6E" fill-rule="evenodd" stroke-width="0" fill-opacity="1" />
  <path d="M141.59999084472656,826.2000122070312 L139.37998962402344,820.5 L143.81997680664062,820.5 L141.59999084472656,826.2000122070312 " stroke="#6E6E6E" fill="none" stroke-width="1" stroke-opacity="1" />
  <path d="M141.59999084472656,748.7999877929688 L141.59999084472656,758.0999755859375 " stroke="#6E6E6E" fill="none" stroke-width="1" stroke-opacity="1" />
  <path d="M141.59999084472656,763.7999877929688 L139.37998962402344,758.0999755859375 L143.81997680664062,758.0999755859375 L141.59999084472656,763.7999877929688 " stroke="none" fill="#6E6E6E" fill-rule="evenodd" stroke-width="0" fill-opacity="1" />
  <path d="M141.59999084472656,763.7999877929688 L139.37998962402344,758.0999755859375 L143.81997680664062,758.0999755859375 L141.59999084472656,763.7999877929688 " stroke="#6E6E6E" fill="none" stroke-width="1" stroke-opacity="1" />
  <path d="M206.0045623779297,742.5464477539062 L152.95635986328125,761.8507690429688 " stroke="#6E6E6E" fill="none" stroke-width="1" stroke-opacity="1" />
  <path d="M147.59999084472656,763.7999877929688 L152.1971893310547,759.7645874023438 L153.71551513671875,763.9369506835938 L147.59999084472656,763.7999877929688 " stroke="none" fill="#6E6E6E" fill-rule="evenodd" stroke-width="0" fill-opacity="1" />
  <path d="M147.59999084472656,763.7999877929688 L152.1971893310547,759.7645874023438 L153.71551513671875,763.9369506835938 L147.59999084472656,763.7999877929688 " stroke="#6E6E6E" fill="none" stroke-width="1" stroke-opacity="1" />
  <path d="M77.1954345703125,742.5464477539062 L130.24362182617188,761.8507690429688 " stroke="#6E6E6E" fill="none" stroke-width="1" stroke-opacity="1" />
  <path d="M135.59999084472656,763.7999877929688 L129.48446655273438,763.9369506835938 L131.00277709960938,759.7646484375 L135.59999084472656,763.7999877929688 " stroke="none" fill="#6E6E6E" fill-rule="evenodd" stroke-width="0" fill-opacity="1" />
  <path d="M135.59999084472656,763.7999877929688 L129.48446655273438,763.9369506835938 L131.00277709960938,759.7646484375 L135.59999084472656,763.7999877929688 " stroke="#6E6E6E" fill="none" stroke-width="1" stroke-opacity="1" />
  <path d="M275.6999816894531,936 L275.6999816894531,945.2999877929688 " stroke="#6E6E6E" fill="none" stroke-width="1" stroke-opacity="1" />
  <path d="M275.6999816894531,951 L273.47998046875,945.2999877929688 L277.9199523925781,945.2999877929688 L275.6999816894531,951 " stroke="none" fill="#6E6E6E" fill-rule="evenodd" stroke-width="0" fill-opacity="1" />
  <path d="M275.6999816894531,951 L273.47998046875,945.2999877929688 L277.9199523925781,945.2999877929688 L275.6999816894531,951 " stroke="#6E6E6E" fill="none" stroke-width="1" stroke-opacity="1" />
  <path d="M406.7999572753906,624 L409.7999572753906,662.7000122070312 " stroke="#6E6E6E" fill="none" stroke-width="1" stroke-opacity="1" />
  <path d="M409.7999572753906,662.7000122070312 L409.7999572753906,725.0999755859375 " stroke="#6E6E6E" fill="none" stroke-width="1" stroke-opacity="1" />
  <path d="M409.7999572753906,725.0999755859375 L409.7999572753906,787.5 " stroke="#6E6E6E" fill="none" stroke-width="1" stroke-opacity="1" />
  <path d="M409.7999572753906,787.5 L409.7999572753906,849.8999633789062 " stroke="#6E6E6E" fill="none" stroke-width="1" stroke-opacity="1" />
  <path d="M409.7999572753906,849.8999633789062 L284.1667785644531,886.9862060546875 " stroke="#6E6E6E" fill="none" stroke-width="1" stroke-opacity="1" />
  <path d="M278.6999816894531,888.5999755859375 L283.5382385253906,884.8569946289062 L284.7952880859375,889.1153564453125 L278.6999816894531,888.5999755859375 " stroke="none" fill="#6E6E6E" fill-rule="evenodd" stroke-width="0" fill-opacity="1" />
  <path d="M278.6999816894531,888.5999755859375 L283.5382385253906,884.8569946289062 L284.7952880859375,889.1153564453125 L278.6999816894531,888.5999755859375 " stroke="#6E6E6E" fill="none" stroke-width="1" stroke-opacity="1" />
  <path d="M171.5555877685547,863.8390502929688 L267.1634826660156,887.2445678710938 " stroke="#6E6E6E" fill="none" stroke-width="1" stroke-opacity="1" />
  <path d="M272.6999816894531,888.5999755859375 L266.6355895996094,889.40087890625 L267.6913757324219,885.0882568359375 L272.6999816894531,888.5999755859375 " stroke="none" fill="#6E6E6E" fill-rule="evenodd" stroke-width="0" fill-opacity="1" />
  <path d="M272.6999816894531,888.5999755859375 L266.6355895996094,889.40087890625 L267.6913757324219,885.0882568359375 L272.6999816894531,888.5999755859375 " stroke="#6E6E6E" fill="none" stroke-width="1" stroke-opacity="1" />
  <path d="M585.5999755859375,686.3999633789062 L585.5999755859375,695.7000122070312 " stroke="#6E6E6E" fill="none" stroke-width="1" stroke-opacity="1" />
  <path d="M585.5999755859375,701.4000244140625 L583.3799438476562,695.7000122070312 L587.8199462890625,695.7000122070312 L585.5999755859375,701.4000244140625 " stroke="none" fill="#6E6E6E" fill-rule="evenodd" stroke-width="0" fill-opacity="1" />
  <path d="M585.5999755859375,701.4000244140625 L583.3799438476562,695.7000122070312 L587.8199462890625,695.7000122070312 L585.5999755859375,701.4000244140625 " stroke="#6E6E6E" fill="none" stroke-width="1" stroke-opacity="1" />
  <path d="M418.7999572753906,624 L576.9237060546875,638.4801635742188 " stroke="#6E6E6E" fill="none" stroke-width="1" stroke-opacity="1" />
  <path d="M582.5999755859375,639 L576.7213134765625,640.69091796875 L577.1261596679688,636.2694091796875 L582.5999755859375,639 " stroke="none" fill="#6E6E6E" fill-rule="evenodd" stroke-width="0" fill-opacity="1" />
  <path d="M582.5999755859375,639 L576.7213134765625,640.69091796875 L577.1261596679688,636.2694091796875 L582.5999755859375,639 " stroke="#6E6E6E" fill="none" stroke-width="1" stroke-opacity="1" />
  <path d="M585.5999755859375,624 L587.4821166992188,633.4107055664062 " stroke="#6E6E6E" fill="none" stroke-width="1" stroke-opacity="1" />
  <path d="M588.5999755859375,639 L585.3052368164062,633.8460693359375 L589.6589965820312,632.975341796875 L588.5999755859375,639 " stroke="none" fill="#6E6E6E" fill-rule="evenodd" stroke-width="0" fill-opacity="1" />
  <path d="M588.5999755859375,639 L585.3052368164062,633.8460693359375 L589.6589965820312,632.975341796875 L588.5999755859375,639 " stroke="#6E6E6E" fill="none" stroke-width="1" stroke-opacity="1" />
  <path d="M412.7999572753906,374.3999938964844 L453,413.0999755859375 " stroke="#6E6E6E" fill="none" stroke-width="1" stroke-opacity="1" />
  <path d="M453,413.0999755859375 L453,475.5 " stroke="#6E6E6E" fill="none" stroke-width="1" stroke-opacity="1" />
  <path d="M453,475.5 L494.8304443359375,510.539794921875 " stroke="#6E6E6E" fill="none" stroke-width="1" stroke-opacity="1" />
  <path d="M499.199951171875,514.199951171875 L493.4048767089844,512.2415771484375 L496.2559814453125,508.83795166015625 L499.199951171875,514.199951171875 " stroke="none" fill="#6E6E6E" fill-rule="evenodd" stroke-width="0" fill-opacity="1" />
  <path d="M499.199951171875,514.199951171875 L493.4048767089844,512.2415771484375 L496.2559814453125,508.83795166015625 L499.199951171875,514.199951171875 " stroke="#6E6E6E" fill="none" stroke-width="1" stroke-opacity="1" />
  <path d="M128.77357482910156,312.2952880859375 L128.77357482910156,321.59527587890625 " stroke="#6E6E6E" fill="none" stroke-width="1" stroke-opacity="1" />
  <path d="M128.77359008789062,327.2953186035156 L126.5535888671875,321.5953063964844 L130.9935760498047,321.5953063964844 L128.77359008789062,327.2953186035156 " stroke="none" fill="#6E6E6E" fill-rule="evenodd" stroke-width="0" fill-opacity="1" />
  <path d="M128.77359008789062,327.2953186035156 L126.5535888671875,321.5953063964844 L130.9935760498047,321.5953063964844 L128.77359008789062,327.2953186035156 " stroke="#6E6E6E" fill="none" stroke-width="1" stroke-opacity="1" />
  <path d="M64.3690185546875,243.64178466796875 L91.53577423095703,262.60382080078125 " stroke="#6E6E6E" fill="none" stroke-width="1" stroke-opacity="1" />
  <path d="M96.2098159790039,265.8662109375 L90.26515197753906,264.4242248535156 L92.80640411376953,260.78338623046875 L96.2098159790039,265.8662109375 " stroke="none" fill="#6E6E6E" fill-rule="evenodd" stroke-width="0" fill-opacity="1" />
  <path d="M96.2098159790039,265.8662109375 L90.26515197753906,264.4242248535156 L92.80640411376953,260.78338623046875 L96.2098159790039,265.8662109375 " stroke="#6E6E6E" fill="none" stroke-width="1" stroke-opacity="1" />
  <path d="M128.77357482910156,249.8953094482422 L128.77357482910156,259.1953125 " stroke="#6E6E6E" fill="none" stroke-width="1" stroke-opacity="1" />
  <path d="M128.77359008789062,264.8952941894531 L126.5535888671875,259.1952819824219 L130.9935760498047,259.1952819824219 L128.77359008789062,264.8952941894531 " stroke="none" fill="#6E6E6E" fill-rule="evenodd" stroke-width="0" fill-opacity="1" />
  <path d="M128.77359008789062,264.8952941894531 L126.5535888671875,259.1952819824219 L130.9935760498047,259.1952819824219 L128.77359008789062,264.8952941894531 " stroke="#6E6E6E" fill="none" stroke-width="1" stroke-opacity="1" />
  <path d="M193.1781463623047,243.64178466796875 L166.0082244873047,262.60601806640625 " stroke="#6E6E6E" fill="none" stroke-width="1" stroke-opacity="1" />
  <path d="M161.33419799804688,265.8684387207031 L164.73760986328125,260.78558349609375 L167.27886962890625,264.4264221191406 L161.33419799804688,265.8684387207031 " stroke="none" fill="#6E6E6E" fill-rule="evenodd" stroke-width="0" fill-opacity="1" />
  <path d="M161.33419799804688,265.8684387207031 L164.73760986328125,260.78558349609375 L167.27886962890625,264.4264221191406 L161.33419799804688,265.8684387207031 " stroke="#6E6E6E" fill="none" stroke-width="1" stroke-opacity="1" />
  <path d="M274.94842529296875,237.58126831054688 L171.35525512695312,273.7345886230469 " stroke="#6E6E6E" fill="none" stroke-width="1" stroke-opacity="1" />
  <path d="M165.97357177734375,275.61273193359375 L170.62376403808594,271.6385498046875 L172.08676147460938,275.8305969238281 L165.97357177734375,275.61273193359375 " stroke="none" fill="#6E6E6E" fill-rule="evenodd" stroke-width="0" fill-opacity="1" />
  <path d="M165.97357177734375,275.61273193359375 L170.62376403808594,271.6385498046875 L172.08676147460938,275.8305969238281 L165.97357177734375,275.61273193359375 " stroke="#6E6E6E" fill="none" stroke-width="1" stroke-opacity="1" />
  <path d="M381.1039123535156,264.6000061035156 L438.49603271484375,264.6000061035156 L438.4960021972656,264.6000061035156 C443.1925964355469,264.5999755859375 446.99993896484375,268.4073181152344 446.99993896484375,273.1039123535156 C446.99993896484375,273.1039123535156 446.99993896484375,273.10394287109375 446.99993896484375,273.10394287109375 L446.9999694824219,273.10394287109375 L446.9999694824219,303.4960632324219 L446.99993896484375,303.4960632324219 C446.99993896484375,308.1926574707031 443.192626953125,312 438.49603271484375,312 L438.49603271484375,312 L381.1039123535156,312 L381.1039123535156,312 C376.4073181152344,312 372.5999755859375,308.1926574707031 372.5999755859375,303.4960632324219 L372.5999755859375,273.10394287109375 L372.5999450683594,273.10394287109375 C372.5999450683594,268.4073486328125 376.40728759765625,264.6000061035156 381.1038818359375,264.5999755859375 " stroke="none" fill="#F2E279" fill-rule="evenodd" stroke-width="0" fill-opacity="1" />
  <text x="17.800355911254883" y="35.284881591796875" dx="0" dy="0" font-family="Segoe UI" font-size="8.249999754130847pt" fill="#000000" style="text-anchor:start" transform="matrix(0.750000 0.000000 0.000000 0.750000 372.5999755859375 264.6000061035156)">Copy Raster</text>
  <path d="M381.1039123535156,264.6000061035156 L438.49603271484375,264.6000061035156 L438.4960021972656,264.6000061035156 C443.1925964355469,264.5999755859375 446.99993896484375,268.4073181152344 446.99993896484375,273.1039123535156 C446.99993896484375,273.1039123535156 446.99993896484375,273.10394287109375 446.99993896484375,273.10394287109375 L446.9999694824219,273.10394287109375 L446.9999694824219,303.4960632324219 L446.99993896484375,303.4960632324219 C446.99993896484375,308.1926574707031 443.192626953125,312 438.49603271484375,312 L438.49603271484375,312 L381.1039123535156,312 L381.1039123535156,312 C376.4073181152344,312 372.5999755859375,308.1926574707031 372.5999755859375,303.4960632324219 L372.5999755859375,273.10394287109375 L372.5999450683594,273.10394287109375 C372.5999450683594,268.4073486328125 376.40728759765625,264.6000061035156 381.1038818359375,264.5999755859375 " stroke="none" fill="none" stroke-width="0.75" stroke-opacity="0" />
  <path d="M446.99993896484375,350.6999816894531 C446.99993896484375,363.78912353515625 430.3449401855469,374.3999938964844 409.79998779296875,374.3999938964844 C389.2549743652344,374.3999938964844 372.5999755859375,363.7891540527344 372.5999450683594,350.70001220703125 L372.5999450683594,350.70001220703125 C372.5999450683594,337.61083984375 389.25494384765625,327 409.7999267578125,327 C430.34490966796875,326.9999694824219 446.99993896484375,337.6108093261719 446.99993896484375,350.6999816894531 C446.99993896484375,350.6999816894531 446.99993896484375,350.6999816894531 446.99993896484375,350.6999816894531 " stroke="none" fill="#83CC7C" fill-rule="evenodd" stroke-width="0" fill-opacity="1" />
  <text x="27.999523162841797" y="35.284881591796875" dx="0" dy="0" font-family="Segoe UI" font-size="8.249999754130847pt" fill="#000000" style="text-anchor:start" transform="matrix(0.750000 0.000000 0.000000 0.750000 372.5999755859375 327)">TF_DEM</text>
  <path d="M446.99993896484375,350.6999816894531 C446.99993896484375,363.78912353515625 430.3449401855469,374.3999938964844 409.79998779296875,374.3999938964844 C389.2549743652344,374.3999938964844 372.5999755859375,363.7891540527344 372.5999450683594,350.70001220703125 L372.5999450683594,350.70001220703125 C372.5999450683594,337.61083984375 389.25494384765625,327 409.7999267578125,327 C430.34490966796875,326.9999694824219 446.99993896484375,337.6108093261719 446.99993896484375,350.6999816894531 C446.99993896484375,350.6999816894531 446.99993896484375,350.6999816894531 446.99993896484375,350.6999816894531 " stroke="none" fill="none" stroke-width="0.75" stroke-opacity="0" />
  <path d="M446.99993896484375,225.8999786376953 C446.99993896484375,238.9891357421875 430.3449401855469,249.59999084472656 409.79998779296875,249.59999084472656 C389.2549743652344,249.59999084472656 372.5999755859375,238.98915100097656 372.5999450683594,225.90000915527344 L372.5999450683594,225.90000915527344 C372.5999450683594,212.81085205078125 389.25494384765625,202.1999969482422 409.7999267578125,202.1999969482422 C430.34490966796875,202.19998168945312 446.99993896484375,212.81082153320312 446.99993896484375,225.89999389648438 C446.99993896484375,225.89999389648438 446.99993896484375,225.89999389648438 446.99993896484375,225.89999389648438 " stroke="none" fill="#70AECC" fill-rule="evenodd" stroke-width="0" fill-opacity="1" />
  <text x="26.43535614013672" y="35.284881591796875" dx="0" dy="0" font-family="Segoe UI" font-size="8.249999754130847pt" fill="#000000" style="text-anchor:start" transform="matrix(0.750000 0.000000 0.000000 0.750000 372.5999755859375 202.1999969482422)">TwinFalls</text>
  <path d="M446.99993896484375,225.8999786376953 C446.99993896484375,238.9891357421875 430.3449401855469,249.59999084472656 409.79998779296875,249.59999084472656 C389.2549743652344,249.59999084472656 372.5999755859375,238.98915100097656 372.5999450683594,225.90000915527344 L372.5999450683594,225.90000915527344 C372.5999450683594,212.81085205078125 389.25494384765625,202.1999969482422 409.7999267578125,202.1999969482422 C430.34490966796875,202.19998168945312 446.99993896484375,212.81082153320312 446.99993896484375,225.89999389648438 C446.99993896484375,225.89999389648438 446.99993896484375,225.89999389648438 446.99993896484375,225.89999389648438 " stroke="none" fill="none" stroke-width="0.75" stroke-opacity="0" />
  <path d="M336.4039306640625,389.3999938964844 L393.7960510253906,389.3999938964844 L393.7960205078125,389.3999938964844 C398.49261474609375,389.39996337890625 402.2999572753906,393.2073059082031 402.2999572753906,397.9039001464844 C402.2999572753906,397.9039001464844 402.2999572753906,397.9039306640625 402.2999572753906,397.9039306640625 L402.29998779296875,397.9039306640625 L402.29998779296875,428.2960510253906 L402.2999572753906,428.2960510253906 C402.2999572753906,432.9926452636719 398.4926452636719,436.79998779296875 393.7960510253906,436.79998779296875 L393.7960510253906,436.79998779296875 L336.4039306640625,436.79998779296875 L336.4039306640625,436.79998779296875 C331.70733642578125,436.79998779296875 327.8999938964844,432.9926452636719 327.8999938964844,428.2960510253906 L327.8999938964844,397.9039306640625 L327.89996337890625,397.9039306640625 C327.89996337890625,393.20733642578125 331.7073059082031,389.3999938964844 336.4039001464844,389.39996337890625 " stroke="none" fill="#F2E279" fill-rule="evenodd" stroke-width="0" fill-opacity="1" />
  <text x="40.94418716430664" y="35.284881591796875" dx="0" dy="0" font-family="Segoe UI" font-size="8.249999754130847pt" fill="#000000" style="text-anchor:start" transform="matrix(0.750000 0.000000 0.000000 0.750000 327.8999938964844 389.3999938964844)">Fill</text>
  <path d="M336.4039306640625,389.3999938964844 L393.7960510253906,389.3999938964844 L393.7960205078125,389.3999938964844 C398.49261474609375,389.39996337890625 402.2999572753906,393.2073059082031 402.2999572753906,397.9039001464844 C402.2999572753906,397.9039001464844 402.2999572753906,397.9039306640625 402.2999572753906,397.9039306640625 L402.29998779296875,397.9039306640625 L402.29998779296875,428.2960510253906 L402.2999572753906,428.2960510253906 C402.2999572753906,432.9926452636719 398.4926452636719,436.79998779296875 393.7960510253906,436.79998779296875 L393.7960510253906,436.79998779296875 L336.4039306640625,436.79998779296875 L336.4039306640625,436.79998779296875 C331.70733642578125,436.79998779296875 327.8999938964844,432.9926452636719 327.8999938964844,428.2960510253906 L327.8999938964844,397.9039306640625 L327.89996337890625,397.9039306640625 C327.89996337890625,393.20733642578125 331.7073059082031,389.3999938964844 336.4039001464844,389.39996337890625 " stroke="none" fill="none" stroke-width="0.75" stroke-opacity="0" />
  <path d="M402.2999572753906,475.5 C402.2999572753906,488.5891418457031 385.64495849609375,499.20001220703125 365.1000061035156,499.20001220703125 C344.55499267578125,499.20001220703125 327.8999938964844,488.58917236328125 327.89996337890625,475.5000305175781 L327.89996337890625,475.5000305175781 C327.89996337890625,462.4108581542969 344.5549621582031,451.8000183105469 365.0999450683594,451.8000183105469 C385.6449279785156,451.79998779296875 402.2999572753906,462.41082763671875 402.2999572753906,475.5 C402.2999572753906,475.5 402.2999572753906,475.5 402.2999572753906,475.5 " stroke="none" fill="#83CC7C" fill-rule="evenodd" stroke-width="0" fill-opacity="1" />
  <text x="37.3033561706543" y="35.284881591796875" dx="0" dy="0" font-family="Segoe UI" font-size="8.249999754130847pt" fill="#000000" style="text-anchor:start" transform="matrix(0.750000 0.000000 0.000000 0.750000 327.8999938964844 451.8000183105469)">fillTF</text>
  <path d="M402.2999572753906,475.5 C402.2999572753906,488.5891418457031 385.64495849609375,499.20001220703125 365.1000061035156,499.20001220703125 C344.55499267578125,499.20001220703125 327.8999938964844,488.58917236328125 327.89996337890625,475.5000305175781 L327.89996337890625,475.5000305175781 C327.89996337890625,462.4108581542969 344.5549621582031,451.8000183105469 365.0999450683594,451.8000183105469 C385.6449279785156,451.79998779296875 402.2999572753906,462.41082763671875 402.2999572753906,475.5 C402.2999572753906,475.5 402.2999572753906,475.5 402.2999572753906,475.5 " stroke="none" fill="none" stroke-width="0.75" stroke-opacity="0" />
  <path d="M467.5039367675781,514.2000122070312 L524.8960571289062,514.2000122070312 L524.89599609375,514.2000122070312 C529.5925903320312,514.199951171875 533.3999633789062,518.00732421875 533.3999633789062,522.7039184570312 C533.3999633789062,522.7039184570312 533.3999633789062,522.7039184570312 533.3999633789062,522.7039184570312 L533.3999633789062,522.7039184570312 L533.3999633789062,553.0960693359375 L533.3999633789062,553.0960693359375 C533.3999633789062,557.7926635742188 529.5926513671875,561.5999755859375 524.8960571289062,561.5999755859375 L524.8960571289062,561.5999755859375 L467.5039367675781,561.5999755859375 L467.5039367675781,561.5999755859375 C462.8073425292969,561.5999755859375 459,557.7926635742188 459,553.0960693359375 L459,522.7039184570312 L458.9999694824219,522.7039184570312 C458.9999694824219,518.00732421875 462.80731201171875,514.2000122070312 467.50390625,514.199951171875 " stroke="none" fill="#F2E279" fill-rule="evenodd" stroke-width="0" fill-opacity="1" />
  <text x="30.5391902923584" y="35.284881591796875" dx="0" dy="0" font-family="Segoe UI" font-size="8.249999754130847pt" fill="#000000" style="text-anchor:start" transform="matrix(0.750000 0.000000 0.000000 0.750000 459 514.2000122070312)">Minus</text>
  <path d="M467.5039367675781,514.2000122070312 L524.8960571289062,514.2000122070312 L524.89599609375,514.2000122070312 C529.5925903320312,514.199951171875 533.3999633789062,518.00732421875 533.3999633789062,522.7039184570312 C533.3999633789062,522.7039184570312 533.3999633789062,522.7039184570312 533.3999633789062,522.7039184570312 L533.3999633789062,522.7039184570312 L533.3999633789062,553.0960693359375 L533.3999633789062,553.0960693359375 C533.3999633789062,557.7926635742188 529.5926513671875,561.5999755859375 524.8960571289062,561.5999755859375 L524.8960571289062,561.5999755859375 L467.5039367675781,561.5999755859375 L467.5039367675781,561.5999755859375 C462.8073425292969,561.5999755859375 459,557.7926635742188 459,553.0960693359375 L459,522.7039184570312 L458.9999694824219,522.7039184570312 C458.9999694824219,518.00732421875 462.80731201171875,514.2000122070312 467.50390625,514.199951171875 " stroke="none" fill="none" stroke-width="0.75" stroke-opacity="0" />
  <path d="M533.3999633789062,600.2999267578125 C533.3999633789062,613.3890991210938 516.7449340820312,623.9999389648438 496.20001220703125,623.9999389648438 C475.6549987792969,623.9999389648438 459,613.3890991210938 458.9999694824219,600.2999877929688 L458.9999694824219,600.2999877929688 C458.9999694824219,587.2108154296875 475.65496826171875,576.5999755859375 496.199951171875,576.5999755859375 C516.7449340820312,576.5999145507812 533.3999633789062,587.2107543945312 533.3999633789062,600.2999267578125 C533.3999633789062,600.2999267578125 533.3999633789062,600.2999267578125 533.3999633789062,600.2999267578125 " stroke="none" fill="#83CC7C" fill-rule="evenodd" stroke-width="0" fill-opacity="1" />
  <text x="33.48868942260742" y="35.284881591796875" dx="0" dy="0" font-family="Segoe UI" font-size="8.249999754130847pt" fill="#000000" style="text-anchor:start" transform="matrix(0.750000 0.000000 0.000000 0.750000 459 576.5999755859375)">diffTF</text>
  <path d="M533.3999633789062,600.2999267578125 C533.3999633789062,613.3890991210938 516.7449340820312,623.9999389648438 496.20001220703125,623.9999389648438 C475.6549987792969,623.9999389648438 459,613.3890991210938 458.9999694824219,600.2999877929688 L458.9999694824219,600.2999877929688 C458.9999694824219,587.2108154296875 475.65496826171875,576.5999755859375 496.199951171875,576.5999755859375 C516.7449340820312,576.5999145507812 533.3999633789062,587.2107543945312 533.3999633789062,600.2999267578125 C533.3999633789062,600.2999267578125 533.3999633789062,600.2999267578125 533.3999633789062,600.2999267578125 " stroke="none" fill="none" stroke-width="0.75" stroke-opacity="0" />
  <path d="M467.5039367675781,639 L524.8960571289062,639 L524.89599609375,639 C529.5925903320312,638.9999389648438 533.3999633789062,642.8073120117188 533.3999633789062,647.50390625 C533.3999633789062,647.50390625 533.3999633789062,647.50390625 533.3999633789062,647.50390625 L533.3999633789062,647.50390625 L533.3999633789062,677.8960571289062 L533.3999633789062,677.8960571289062 C533.3999633789062,682.5926513671875 529.5926513671875,686.3999633789062 524.8960571289062,686.3999633789062 L524.8960571289062,686.3999633789062 L467.5039367675781,686.3999633789062 L467.5039367675781,686.3999633789062 C462.8073425292969,686.3999633789062 459,682.5926513671875 459,677.8960571289062 L459,647.50390625 L458.9999694824219,647.50390625 C458.9999694824219,642.8073120117188 462.80731201171875,639 467.50390625,638.9999389648438 " stroke="none" fill="#F2E279" fill-rule="evenodd" stroke-width="0" fill-opacity="1" />
  <text x="42.405189514160156" y="35.284881591796875" dx="0" dy="0" font-family="Segoe UI" font-size="8.249999754130847pt" fill="#000000" style="text-anchor:start" transform="matrix(0.750000 0.000000 0.000000 0.750000 459 639)">Int</text>
  <path d="M467.5039367675781,639 L524.8960571289062,639 L524.89599609375,639 C529.5925903320312,638.9999389648438 533.3999633789062,642.8073120117188 533.3999633789062,647.50390625 C533.3999633789062,647.50390625 533.3999633789062,647.50390625 533.3999633789062,647.50390625 L533.3999633789062,647.50390625 L533.3999633789062,677.8960571289062 L533.3999633789062,677.8960571289062 C533.3999633789062,682.5926513671875 529.5926513671875,686.3999633789062 524.8960571289062,686.3999633789062 L524.8960571289062,686.3999633789062 L467.5039367675781,686.3999633789062 L467.5039367675781,686.3999633789062 C462.8073425292969,686.3999633789062 459,682.5926513671875 459,677.8960571289062 L459,647.50390625 L458.9999694824219,647.50390625 C458.9999694824219,642.8073120117188 462.80731201171875,639 467.50390625,638.9999389648438 " stroke="none" fill="none" stroke-width="0.75" stroke-opacity="0" />
  <path d="M533.3999633789062,725.0999755859375 C533.3999633789062,738.1891479492188 516.7449340820312,748.7999877929688 496.20001220703125,748.7999877929688 C475.6549987792969,748.7999877929688 459,738.1891479492188 458.9999694824219,725.1000366210938 L458.9999694824219,725.1000366210938 C458.9999694824219,712.0108642578125 475.65496826171875,701.4000244140625 496.199951171875,701.4000244140625 C516.7449340820312,701.3999633789062 533.3999633789062,712.0108032226562 533.3999633789062,725.0999755859375 C533.3999633789062,725.0999755859375 533.3999633789062,725.0999755859375 533.3999633789062,725.0999755859375 " stroke="none" fill="#83CC7C" fill-rule="evenodd" stroke-width="0" fill-opacity="1" />
  <text x="24.895357131958008" y="35.284881591796875" dx="0" dy="0" font-family="Segoe UI" font-size="8.249999754130847pt" fill="#000000" style="text-anchor:start" transform="matrix(0.750000 0.000000 0.000000 0.750000 459 701.4000244140625)">diffTF_int</text>
  <path d="M533.3999633789062,725.0999755859375 C533.3999633789062,738.1891479492188 516.7449340820312,748.7999877929688 496.20001220703125,748.7999877929688 C475.6549987792969,748.7999877929688 459,738.1891479492188 458.9999694824219,725.1000366210938 L458.9999694824219,725.1000366210938 C458.9999694824219,712.0108642578125 475.65496826171875,701.4000244140625 496.199951171875,701.4000244140625 C516.7449340820312,701.3999633789062 533.3999633789062,712.0108032226562 533.3999633789062,725.0999755859375 C533.3999633789062,725.0999755859375 533.3999633789062,725.0999755859375 533.3999633789062,725.0999755859375 " stroke="none" fill="none" stroke-width="0.75" stroke-opacity="0" />
  <path d="M467.5039367675781,763.7999877929688 L524.8960571289062,763.7999877929688 L524.89599609375,763.7999877929688 C529.5925903320312,763.7999267578125 533.3999633789062,767.6072998046875 533.3999633789062,772.3038940429688 C533.3999633789062,772.3038940429688 533.3999633789062,772.3038940429688 533.3999633789062,772.3038940429688 L533.3999633789062,772.3038940429688 L533.3999633789062,802.696044921875 L533.3999633789062,802.696044921875 C533.3999633789062,807.3926391601562 529.5926513671875,811.199951171875 524.8960571289062,811.199951171875 L524.8960571289062,811.199951171875 L467.5039367675781,811.199951171875 L467.5039367675781,811.199951171875 C462.8073425292969,811.199951171875 459,807.3926391601562 459,802.696044921875 L459,772.3038940429688 L458.9999694824219,772.3038940429688 C458.9999694824219,767.6072998046875 462.80731201171875,763.7999877929688 467.50390625,763.7999267578125 " stroke="none" fill="#F2E279" fill-rule="evenodd" stroke-width="0" fill-opacity="1" />
  <text x="13.505354881286621" y="35.284881591796875" dx="0" dy="0" font-family="Segoe UI" font-size="8.249999754130847pt" fill="#000000" style="text-anchor:start" transform="matrix(0.750000 0.000000 0.000000 0.750000 459 763.7999877929688)">Region Group</text>
  <path d="M467.5039367675781,763.7999877929688 L524.8960571289062,763.7999877929688 L524.89599609375,763.7999877929688 C529.5925903320312,763.7999267578125 533.3999633789062,767.6072998046875 533.3999633789062,772.3038940429688 C533.3999633789062,772.3038940429688 533.3999633789062,772.3038940429688 533.3999633789062,772.3038940429688 L533.3999633789062,772.3038940429688 L533.3999633789062,802.696044921875 L533.3999633789062,802.696044921875 C533.3999633789062,807.3926391601562 529.5926513671875,811.199951171875 524.8960571289062,811.199951171875 L524.8960571289062,811.199951171875 L467.5039367675781,811.199951171875 L467.5039367675781,811.199951171875 C462.8073425292969,811.199951171875 459,807.3926391601562 459,802.696044921875 L459,772.3038940429688 L458.9999694824219,772.3038940429688 C458.9999694824219,767.6072998046875 462.80731201171875,763.7999877929688 467.50390625,763.7999267578125 " stroke="none" fill="none" stroke-width="0.75" stroke-opacity="0" />
  <path d="M533.3999633789062,849.8999633789062 C533.3999633789062,862.9891357421875 516.7449340820312,873.5999755859375 496.20001220703125,873.5999755859375 C475.6549987792969,873.5999755859375 459,862.9891357421875 458.9999694824219,849.9000244140625 L458.9999694824219,849.9000244140625 C458.9999694824219,836.8108520507812 475.65496826171875,826.2000122070312 496.199951171875,826.2000122070312 C516.7449340820312,826.199951171875 533.3999633789062,836.810791015625 533.3999633789062,849.8999633789062 C533.3999633789062,849.8999633789062 533.3999633789062,849.8999633789062 533.3999633789062,849.8999633789062 " stroke="none" fill="#83CC7C" fill-rule="evenodd" stroke-width="0" fill-opacity="1" />
  <text x="30.562856674194336" y="35.284881591796875" dx="0" dy="0" font-family="Segoe UI" font-size="8.249999754130847pt" fill="#000000" style="text-anchor:start" transform="matrix(0.750000 0.000000 0.000000 0.750000 459 826.2000122070312)">sinksTF</text>
  <path d="M533.3999633789062,849.8999633789062 C533.3999633789062,862.9891357421875 516.7449340820312,873.5999755859375 496.20001220703125,873.5999755859375 C475.6549987792969,873.5999755859375 459,862.9891357421875 458.9999694824219,849.9000244140625 L458.9999694824219,849.9000244140625 C458.9999694824219,836.8108520507812 475.65496826171875,826.2000122070312 496.199951171875,826.2000122070312 C516.7449340820312,826.199951171875 533.3999633789062,836.810791015625 533.3999633789062,849.8999633789062 C533.3999633789062,849.8999633789062 533.3999633789062,849.8999633789062 533.3999633789062,849.8999633789062 " stroke="none" fill="none" stroke-width="0.75" stroke-opacity="0" />
  <path d="M336.4039306640625,514.2000122070312 L393.7960510253906,514.2000122070312 L393.7960205078125,514.2000122070312 C398.49261474609375,514.199951171875 402.2999572753906,518.00732421875 402.2999572753906,522.7039184570312 C402.2999572753906,522.7039184570312 402.2999572753906,522.7039184570312 402.2999572753906,522.7039184570312 L402.29998779296875,522.7039184570312 L402.29998779296875,553.0960693359375 L402.2999572753906,553.0960693359375 C402.2999572753906,557.7926635742188 398.4926452636719,561.5999755859375 393.7960510253906,561.5999755859375 L393.7960510253906,561.5999755859375 L336.4039306640625,561.5999755859375 L336.4039306640625,561.5999755859375 C331.70733642578125,561.5999755859375 327.8999938964844,557.7926635742188 327.8999938964844,553.0960693359375 L327.8999938964844,522.7039184570312 L327.89996337890625,522.7039184570312 C327.89996337890625,518.00732421875 331.7073059082031,514.2000122070312 336.4039001464844,514.199951171875 " stroke="none" fill="#F2E279" fill-rule="evenodd" stroke-width="0" fill-opacity="1" />
  <text x="12.854188919067383" y="35.284881591796875" dx="0" dy="0" font-family="Segoe UI" font-size="8.249999754130847pt" fill="#000000" style="text-anchor:start" transform="matrix(0.750000 0.000000 0.000000 0.750000 327.8999938964844 514.2000122070312)">Flow Direction</text>
  <path d="M336.4039306640625,514.2000122070312 L393.7960510253906,514.2000122070312 L393.7960205078125,514.2000122070312 C398.49261474609375,514.199951171875 402.2999572753906,518.00732421875 402.2999572753906,522.7039184570312 C402.2999572753906,522.7039184570312 402.2999572753906,522.7039184570312 402.2999572753906,522.7039184570312 L402.29998779296875,522.7039184570312 L402.29998779296875,553.0960693359375 L402.2999572753906,553.0960693359375 C402.2999572753906,557.7926635742188 398.4926452636719,561.5999755859375 393.7960510253906,561.5999755859375 L393.7960510253906,561.5999755859375 L336.4039306640625,561.5999755859375 L336.4039306640625,561.5999755859375 C331.70733642578125,561.5999755859375 327.8999938964844,557.7926635742188 327.8999938964844,553.0960693359375 L327.8999938964844,522.7039184570312 L327.89996337890625,522.7039184570312 C327.89996337890625,518.00732421875 331.7073059082031,514.2000122070312 336.4039001464844,514.199951171875 " stroke="none" fill="none" stroke-width="0.75" stroke-opacity="0" />
  <path d="M446.99993896484375,600.2999267578125 C446.99993896484375,613.3890991210938 430.3449401855469,623.9999389648438 409.79998779296875,623.9999389648438 C389.2549743652344,623.9999389648438 372.5999755859375,613.3890991210938 372.5999450683594,600.2999877929688 L372.5999450683594,600.2999877929688 C372.5999450683594,587.2108154296875 389.25494384765625,576.5999755859375 409.7999267578125,576.5999755859375 C430.34490966796875,576.5999145507812 446.99993896484375,587.2107543945312 446.99993896484375,600.2999267578125 C446.99993896484375,600.2999267578125 446.99993896484375,600.2999267578125 446.99993896484375,600.2999267578125 " stroke="none" fill="#83CC7C" fill-rule="evenodd" stroke-width="0" fill-opacity="1" />
  <text x="34.816688537597656" y="35.284881591796875" dx="0" dy="0" font-family="Segoe UI" font-size="8.249999754130847pt" fill="#000000" style="text-anchor:start" transform="matrix(0.750000 0.000000 0.000000 0.750000 372.5999755859375 576.5999755859375)">fdirTF</text>
  <path d="M446.99993896484375,600.2999267578125 C446.99993896484375,613.3890991210938 430.3449401855469,623.9999389648438 409.79998779296875,623.9999389648438 C389.2549743652344,623.9999389648438 372.5999755859375,613.3890991210938 372.5999450683594,600.2999877929688 L372.5999450683594,600.2999877929688 C372.5999450683594,587.2108154296875 389.25494384765625,576.5999755859375 409.7999267578125,576.5999755859375 C430.34490966796875,576.5999145507812 446.99993896484375,587.2107543945312 446.99993896484375,600.2999267578125 C446.99993896484375,600.2999267578125 446.99993896484375,600.2999267578125 446.99993896484375,600.2999267578125 " stroke="none" fill="none" stroke-width="0.75" stroke-opacity="0" />
  <path d="M357.5999450683594,600.2999267578125 C357.5999450683594,613.3890991210938 340.9449462890625,623.9999389648438 320.3999938964844,623.9999389648438 C299.85498046875,623.9999389648438 283.1999816894531,613.3890991210938 283.199951171875,600.2999877929688 L283.199951171875,600.2999877929688 C283.199951171875,587.2108154296875 299.8549499511719,576.5999755859375 320.3999328613281,576.5999755859375 C340.9449157714844,576.5999145507812 357.5999450683594,587.2107543945312 357.5999450683594,600.2999267578125 C357.5999450683594,600.2999267578125 357.5999450683594,600.2999267578125 357.5999450683594,600.2999267578125 " stroke="none" fill="#E7E7E7" fill-rule="evenodd" stroke-width="0" fill-opacity="1" />
  <text x="0.5145223140716553" y="35.284881591796875" dx="0" dy="0" font-family="Segoe UI" font-size="8.249999754130847pt" fill="#000000" style="text-anchor:start" transform="matrix(0.750000 0.000000 0.000000 0.750000 283.1999816894531 576.5999755859375)">Output drop raster</text>
  <path d="M357.5999450683594,600.2999267578125 C357.5999450683594,613.3890991210938 340.9449462890625,623.9999389648438 320.3999938964844,623.9999389648438 C299.85498046875,623.9999389648438 283.1999816894531,613.3890991210938 283.199951171875,600.2999877929688 L283.199951171875,600.2999877929688 C283.199951171875,587.2108154296875 299.8549499511719,576.5999755859375 320.3999328613281,576.5999755859375 C340.9449157714844,576.5999145507812 357.5999450683594,587.2107543945312 357.5999450683594,600.2999267578125 C357.5999450683594,600.2999267578125 357.5999450683594,600.2999267578125 357.5999450683594,600.2999267578125 " stroke="none" fill="none" stroke-width="0.75" stroke-opacity="0" />
  <path d="M23.503936767578125,639 L80.89605712890625,639 L80.89604187011719,639 C85.5926284790039,638.9999389648438 89.39998626708984,642.8073120117188 89.39998626708984,647.50390625 C89.39998626708984,647.50390625 89.39998626708984,647.50390625 89.39998626708984,647.50390625 L89.39999389648438,647.50390625 L89.39999389648438,677.8960571289062 L89.39998626708984,677.8960571289062 C89.39998626708984,682.5926513671875 85.5926513671875,686.3999633789062 80.89605712890625,686.3999633789062 L80.89605712890625,686.3999633789062 L23.503936767578125,686.3999633789062 L23.50394058227539,686.3999633789062 C18.80734634399414,686.3999633789062 15.00000286102295,682.5926513671875 15,677.8960571289062 L15,647.50390625 L14.999999046325684,647.50390625 C14.999995231628418,642.8073120117188 18.80733299255371,639 23.50392723083496,638.9999389648438 " stroke="none" fill="#F2E279" fill-rule="evenodd" stroke-width="0" fill-opacity="1" />
  <text x="36.41085433959961" y="27.96988296508789" dx="0" dy="0" font-family="Segoe UI" font-size="8.249999754130847pt" fill="#000000" style="text-anchor:start" transform="matrix(0.750000 0.000000 0.000000 0.750000 15 639)">Flow </text>
  <text x="13.507355690002441" y="42.599884033203125" dx="0" dy="0" font-family="Segoe UI" font-size="8.249999754130847pt" fill="#000000" style="text-anchor:start" transform="matrix(0.750000 0.000000 0.000000 0.750000 15 639)">Accumulation</text>
  <path d="M23.503936767578125,639 L80.89605712890625,639 L80.89604187011719,639 C85.5926284790039,638.9999389648438 89.39998626708984,642.8073120117188 89.39998626708984,647.50390625 C89.39998626708984,647.50390625 89.39998626708984,647.50390625 89.39998626708984,647.50390625 L89.39999389648438,647.50390625 L89.39999389648438,677.8960571289062 L89.39998626708984,677.8960571289062 C89.39998626708984,682.5926513671875 85.5926513671875,686.3999633789062 80.89605712890625,686.3999633789062 L80.89605712890625,686.3999633789062 L23.503936767578125,686.3999633789062 L23.50394058227539,686.3999633789062 C18.80734634399414,686.3999633789062 15.00000286102295,682.5926513671875 15,677.8960571289062 L15,647.50390625 L14.999999046325684,647.50390625 C14.999995231628418,642.8073120117188 18.80733299255371,639 23.50392723083496,638.9999389648438 " stroke="none" fill="none" stroke-width="0.75" stroke-opacity="0" />
  <path d="M89.39998626708984,725.0999755859375 C89.39998626708984,738.1891479492188 72.74497985839844,748.7999877929688 52.20001220703125,748.7999877929688 C31.655027389526367,748.7999877929688 15.000014305114746,738.1891479492188 14.99999713897705,725.1000366210938 L14.999994277954102,725.1000366210938 C14.999977111816406,712.0108642578125 31.65497398376465,701.4000244140625 52.1999626159668,701.4000244140625 C72.74494934082031,701.3999633789062 89.39996337890625,712.0108032226562 89.39998626708984,725.0999755859375 C89.39998626708984,725.0999755859375 89.39998626708984,725.0999755859375 89.39998626708984,725.0999755859375 " stroke="none" fill="#83CC7C" fill-rule="evenodd" stroke-width="0" fill-opacity="1" />
  <text x="33.420021057128906" y="35.284881591796875" dx="0" dy="0" font-family="Segoe UI" font-size="8.249999754130847pt" fill="#000000" style="text-anchor:start" transform="matrix(0.750000 0.000000 0.000000 0.750000 15 701.4000244140625)">faccTF</text>
  <path d="M89.39998626708984,725.0999755859375 C89.39998626708984,738.1891479492188 72.74497985839844,748.7999877929688 52.20001220703125,748.7999877929688 C31.655027389526367,748.7999877929688 15.000014305114746,738.1891479492188 14.99999713897705,725.1000366210938 L14.999994277954102,725.1000366210938 C14.999977111816406,712.0108642578125 31.65497398376465,701.4000244140625 52.1999626159668,701.4000244140625 C72.74494934082031,701.3999633789062 89.39996337890625,712.0108032226562 89.39998626708984,725.0999755859375 C89.39998626708984,725.0999755859375 89.39998626708984,725.0999755859375 89.39998626708984,725.0999755859375 " stroke="none" fill="none" stroke-width="0.75" stroke-opacity="0" />
  <path d="M291.70391845703125,639 L349.0960388183594,639 L349.09600830078125,639 C353.7926025390625,638.9999389648438 357.5999450683594,642.8073120117188 357.5999450683594,647.50390625 C357.5999450683594,647.50390625 357.5999450683594,647.50390625 357.5999450683594,647.50390625 L357.5999755859375,647.50390625 L357.5999755859375,677.8960571289062 L357.5999450683594,677.8960571289062 C357.5999450683594,682.5926513671875 353.7926330566406,686.3999633789062 349.0960388183594,686.3999633789062 L349.0960388183594,686.3999633789062 L291.70391845703125,686.3999633789062 L291.70391845703125,686.3999633789062 C287.00732421875,686.3999633789062 283.1999816894531,682.5926513671875 283.1999816894531,677.8960571289062 L283.1999816894531,647.50390625 L283.199951171875,647.50390625 C283.199951171875,642.8073120117188 287.0072937011719,639 291.7038879394531,638.9999389648438 " stroke="none" fill="#F2E279" fill-rule="evenodd" stroke-width="0" fill-opacity="1" />
  <text x="18.110857009887695" y="35.284881591796875" dx="0" dy="0" font-family="Segoe UI" font-size="8.249999754130847pt" fill="#000000" style="text-anchor:start" transform="matrix(0.750000 0.000000 0.000000 0.750000 283.1999816894531 639)">Flow Length</text>
  <path d="M291.70391845703125,639 L349.0960388183594,639 L349.09600830078125,639 C353.7926025390625,638.9999389648438 357.5999450683594,642.8073120117188 357.5999450683594,647.50390625 C357.5999450683594,647.50390625 357.5999450683594,647.50390625 357.5999450683594,647.50390625 L357.5999755859375,647.50390625 L357.5999755859375,677.8960571289062 L357.5999450683594,677.8960571289062 C357.5999450683594,682.5926513671875 353.7926330566406,686.3999633789062 349.0960388183594,686.3999633789062 L349.0960388183594,686.3999633789062 L291.70391845703125,686.3999633789062 L291.70391845703125,686.3999633789062 C287.00732421875,686.3999633789062 283.1999816894531,682.5926513671875 283.1999816894531,677.8960571289062 L283.1999816894531,647.50390625 L283.199951171875,647.50390625 C283.199951171875,642.8073120117188 287.0072937011719,639 291.7038879394531,638.9999389648438 " stroke="none" fill="none" stroke-width="0.75" stroke-opacity="0" />
  <path d="M357.5999450683594,725.0999755859375 C357.5999450683594,738.1891479492188 340.9449462890625,748.7999877929688 320.3999938964844,748.7999877929688 C299.85498046875,748.7999877929688 283.1999816894531,738.1891479492188 283.199951171875,725.1000366210938 L283.199951171875,725.1000366210938 C283.199951171875,712.0108642578125 299.8549499511719,701.4000244140625 320.3999328613281,701.4000244140625 C340.9449157714844,701.3999633789062 357.5999450683594,712.0108032226562 357.5999450683594,725.0999755859375 C357.5999450683594,725.0999755859375 357.5999450683594,725.0999755859375 357.5999450683594,725.0999755859375 " stroke="none" fill="#83CC7C" fill-rule="evenodd" stroke-width="0" fill-opacity="1" />
  <text x="33.976688385009766" y="35.284881591796875" dx="0" dy="0" font-family="Segoe UI" font-size="8.249999754130847pt" fill="#000000" style="text-anchor:start" transform="matrix(0.750000 0.000000 0.000000 0.750000 283.1999816894531 701.4000244140625)">flenTF</text>
  <path d="M357.5999450683594,725.0999755859375 C357.5999450683594,738.1891479492188 340.9449462890625,748.7999877929688 320.3999938964844,748.7999877929688 C299.85498046875,748.7999877929688 283.1999816894531,738.1891479492188 283.199951171875,725.1000366210938 L283.199951171875,725.1000366210938 C283.199951171875,712.0108642578125 299.8549499511719,701.4000244140625 320.3999328613281,701.4000244140625 C340.9449157714844,701.3999633789062 357.5999450683594,712.0108032226562 357.5999450683594,725.0999755859375 C357.5999450683594,725.0999755859375 357.5999450683594,725.0999755859375 357.5999450683594,725.0999755859375 " stroke="none" fill="none" stroke-width="0.75" stroke-opacity="0" />
  <path d="M112.9039306640625,763.7999877929688 L170.29605102539062,763.7999877929688 L170.29603576660156,763.7999877929688 C174.99261474609375,763.7999267578125 178.7999725341797,767.6072998046875 178.7999725341797,772.3038940429688 C178.7999725341797,772.3038940429688 178.7999725341797,772.3038940429688 178.7999725341797,772.3038940429688 L178.79998779296875,772.3038940429688 L178.79998779296875,802.696044921875 L178.7999725341797,802.696044921875 C178.7999725341797,807.3926391601562 174.99264526367188,811.199951171875 170.29605102539062,811.199951171875 L170.29605102539062,811.199951171875 L112.9039306640625,811.199951171875 L112.9039306640625,811.199951171875 C108.20733642578125,811.199951171875 104.39999389648438,807.3926391601562 104.39999389648438,802.696044921875 L104.39999389648438,772.3038940429688 L104.39998626708984,772.3038940429688 C104.39998626708984,767.6072998046875 108.20732116699219,763.7999877929688 112.90391540527344,763.7999267578125 " stroke="none" fill="#F2E279" fill-rule="evenodd" stroke-width="0" fill-opacity="1" />
  <text x="37.16368865966797" y="35.284881591796875" dx="0" dy="0" font-family="Segoe UI" font-size="8.249999754130847pt" fill="#000000" style="text-anchor:start" transform="matrix(0.750000 0.000000 0.000000 0.750000 104.39999389648438 763.7999877929688)">Con</text>
  <path d="M112.9039306640625,763.7999877929688 L170.29605102539062,763.7999877929688 L170.29603576660156,763.7999877929688 C174.99261474609375,763.7999267578125 178.7999725341797,767.6072998046875 178.7999725341797,772.3038940429688 C178.7999725341797,772.3038940429688 178.7999725341797,772.3038940429688 178.7999725341797,772.3038940429688 L178.79998779296875,772.3038940429688 L178.79998779296875,802.696044921875 L178.7999725341797,802.696044921875 C178.7999725341797,807.3926391601562 174.99264526367188,811.199951171875 170.29605102539062,811.199951171875 L170.29605102539062,811.199951171875 L112.9039306640625,811.199951171875 L112.9039306640625,811.199951171875 C108.20733642578125,811.199951171875 104.39999389648438,807.3926391601562 104.39999389648438,802.696044921875 L104.39999389648438,772.3038940429688 L104.39998626708984,772.3038940429688 C104.39998626708984,767.6072998046875 108.20732116699219,763.7999877929688 112.90391540527344,763.7999267578125 " stroke="none" fill="none" stroke-width="0.75" stroke-opacity="0" />
  <path d="M178.7999725341797,849.8999633789062 C178.7999725341797,862.9891357421875 162.1449737548828,873.5999755859375 141.60000610351562,873.5999755859375 C121.05501556396484,873.5999755859375 104.4000015258789,862.9891357421875 104.39998626708984,849.9000244140625 L104.39998626708984,849.9000244140625 C104.39997100830078,836.8108520507812 121.05496215820312,826.2000122070312 141.59994506835938,826.2000122070312 C162.1449432373047,826.199951171875 178.79995727539062,836.810791015625 178.7999725341797,849.8999633789062 C178.7999725341797,849.8999633789062 178.7999725341797,849.8999633789062 178.7999725341797,849.8999633789062 " stroke="none" fill="#83CC7C" fill-rule="evenodd" stroke-width="0" fill-opacity="1" />
  <text x="31.562856674194336" y="35.284881591796875" dx="0" dy="0" font-family="Segoe UI" font-size="8.249999754130847pt" fill="#000000" style="text-anchor:start" transform="matrix(0.750000 0.000000 0.000000 0.750000 104.39999389648438 826.2000122070312)">strmTF</text>
  <path d="M178.7999725341797,849.8999633789062 C178.7999725341797,862.9891357421875 162.1449737548828,873.5999755859375 141.60000610351562,873.5999755859375 C121.05501556396484,873.5999755859375 104.4000015258789,862.9891357421875 104.39998626708984,849.9000244140625 L104.39998626708984,849.9000244140625 C104.39997100830078,836.8108520507812 121.05496215820312,826.2000122070312 141.59994506835938,826.2000122070312 C162.1449432373047,826.199951171875 178.79995727539062,836.810791015625 178.7999725341797,849.8999633789062 C178.7999725341797,849.8999633789062 178.7999725341797,849.8999633789062 178.7999725341797,849.8999633789062 " stroke="none" fill="none" stroke-width="0.75" stroke-opacity="0" />
  <path d="M178.7999725341797,725.0999755859375 C178.7999725341797,738.1891479492188 162.1449737548828,748.7999877929688 141.60000610351562,748.7999877929688 C121.05501556396484,748.7999877929688 104.4000015258789,738.1891479492188 104.39998626708984,725.1000366210938 L104.39998626708984,725.1000366210938 C104.39997100830078,712.0108642578125 121.05496215820312,701.4000244140625 141.59994506835938,701.4000244140625 C162.1449432373047,701.3999633789062 178.79995727539062,712.0108032226562 178.7999725341797,725.0999755859375 C178.7999725341797,725.0999755859375 178.7999725341797,725.0999755859375 178.7999725341797,725.0999755859375 " stroke="none" fill="#70AECC" fill-rule="evenodd" stroke-width="0" fill-opacity="1" />
  <text x="9.585188865661621" y="27.96988296508789" dx="0" dy="0" font-family="Segoe UI" font-size="8.249999754130847pt" fill="#000000" style="text-anchor:start" transform="matrix(0.750000 0.000000 0.000000 0.750000 104.39999389648438 701.4000244140625)">Input true raster </text>
  <text x="5.331855773925781" y="42.599884033203125" dx="0" dy="0" font-family="Segoe UI" font-size="8.249999754130847pt" fill="#000000" style="text-anchor:start" transform="matrix(0.750000 0.000000 0.000000 0.750000 104.39999389648438 701.4000244140625)">or constant value</text>
  <path d="M178.7999725341797,725.0999755859375 C178.7999725341797,738.1891479492188 162.1449737548828,748.7999877929688 141.60000610351562,748.7999877929688 C121.05501556396484,748.7999877929688 104.4000015258789,738.1891479492188 104.39998626708984,725.1000366210938 L104.39998626708984,725.1000366210938 C104.39997100830078,712.0108642578125 121.05496215820312,701.4000244140625 141.59994506835938,701.4000244140625 C162.1449432373047,701.3999633789062 178.79995727539062,712.0108032226562 178.7999725341797,725.0999755859375 C178.7999725341797,725.0999755859375 178.7999725341797,725.0999755859375 178.7999725341797,725.0999755859375 " stroke="none" fill="none" stroke-width="0.75" stroke-opacity="0" />
  <path d="M268.199951171875,725.0999755859375 C268.199951171875,738.1891479492188 251.5449676513672,748.7999877929688 231,748.7999877929688 C210.4550018310547,748.7999877929688 193.79998779296875,738.1891479492188 193.7999725341797,725.1000366210938 L193.7999725341797,725.1000366210938 C193.79995727539062,712.0108642578125 210.4549560546875,701.4000244140625 230.99993896484375,701.4000244140625 C251.54493713378906,701.3999633789062 268.199951171875,712.0108032226562 268.199951171875,725.0999755859375 C268.199951171875,725.0999755859375 268.199951171875,725.0999755859375 268.199951171875,725.0999755859375 " stroke="none" fill="#70AECC" fill-rule="evenodd" stroke-width="0" fill-opacity="1" />
  <text x="8.288521766662598" y="27.96988296508789" dx="0" dy="0" font-family="Segoe UI" font-size="8.249999754130847pt" fill="#000000" style="text-anchor:start" transform="matrix(0.750000 0.000000 0.000000 0.750000 193.79998779296875 701.4000244140625)">Input false raster </text>
  <text x="5.331855773925781" y="42.599884033203125" dx="0" dy="0" font-family="Segoe UI" font-size="8.249999754130847pt" fill="#000000" style="text-anchor:start" transform="matrix(0.750000 0.000000 0.000000 0.750000 193.79998779296875 701.4000244140625)">or constant value</text>
  <path d="M268.199951171875,725.0999755859375 C268.199951171875,738.1891479492188 251.5449676513672,748.7999877929688 231,748.7999877929688 C210.4550018310547,748.7999877929688 193.79998779296875,738.1891479492188 193.7999725341797,725.1000366210938 L193.7999725341797,725.1000366210938 C193.79995727539062,712.0108642578125 210.4549560546875,701.4000244140625 230.99993896484375,701.4000244140625 C251.54493713378906,701.3999633789062 268.199951171875,712.0108032226562 268.199951171875,725.0999755859375 C268.199951171875,725.0999755859375 268.199951171875,725.0999755859375 268.199951171875,725.0999755859375 " stroke="none" fill="none" stroke-width="0.75" stroke-opacity="0" />
  <path d="M247.00393676757812,888.6000366210938 L304.39605712890625,888.6000366210938 L304.3960266113281,888.6000366210938 C309.0926208496094,888.5999755859375 312.89996337890625,892.4073486328125 312.89996337890625,897.1039428710938 C312.89996337890625,897.1039428710938 312.89996337890625,897.1039428710938 312.89996337890625,897.1039428710938 L312.8999938964844,897.1039428710938 L312.8999938964844,927.49609375 L312.89996337890625,927.49609375 C312.89996337890625,932.1926879882812 309.0926513671875,936 304.39605712890625,936 L304.39605712890625,936 L247.00393676757812,936 L247.00393676757812,936 C242.30734252929688,936 238.5,932.1926879882812 238.5,927.49609375 L238.5,897.1039428710938 L238.49998474121094,897.1039428710938 C238.49998474121094,892.4073486328125 242.3073272705078,888.6000366210938 247.00392150878906,888.5999755859375 " stroke="none" fill="#F2E279" fill-rule="evenodd" stroke-width="0" fill-opacity="1" />
  <text x="15.040355682373047" y="35.284881591796875" dx="0" dy="0" font-family="Segoe UI" font-size="8.249999754130847pt" fill="#000000" style="text-anchor:start" transform="matrix(0.750000 0.000000 0.000000 0.750000 238.5 888.6000366210938)">Stream Order</text>
  <path d="M247.00393676757812,888.6000366210938 L304.39605712890625,888.6000366210938 L304.3960266113281,888.6000366210938 C309.0926208496094,888.5999755859375 312.89996337890625,892.4073486328125 312.89996337890625,897.1039428710938 C312.89996337890625,897.1039428710938 312.89996337890625,897.1039428710938 312.89996337890625,897.1039428710938 L312.8999938964844,897.1039428710938 L312.8999938964844,927.49609375 L312.89996337890625,927.49609375 C312.89996337890625,932.1926879882812 309.0926513671875,936 304.39605712890625,936 L304.39605712890625,936 L247.00393676757812,936 L247.00393676757812,936 C242.30734252929688,936 238.5,932.1926879882812 238.5,927.49609375 L238.5,897.1039428710938 L238.49998474121094,897.1039428710938 C238.49998474121094,892.4073486328125 242.3073272705078,888.6000366210938 247.00392150878906,888.5999755859375 " stroke="none" fill="none" stroke-width="0.75" stroke-opacity="0" />
  <path d="M312.89996337890625,974.699951171875 C312.89996337890625,987.7891235351562 296.2449645996094,998.3999633789062 275.70001220703125,998.3999633789062 C255.15501403808594,998.3999633789062 238.5,987.7891235351562 238.49998474121094,974.7000122070312 L238.49998474121094,974.7000122070312 C238.49996948242188,961.61083984375 255.15496826171875,951 275.699951171875,951 C296.24493408203125,950.9999389648438 312.89996337890625,961.6107788085938 312.89996337890625,974.699951171875 C312.89996337890625,974.699951171875 312.89996337890625,974.699951171875 312.89996337890625,974.699951171875 " stroke="none" fill="#83CC7C" fill-rule="evenodd" stroke-width="0" fill-opacity="1" />
  <text x="22.26952362060547" y="35.284881591796875" dx="0" dy="0" font-family="Segoe UI" font-size="8.249999754130847pt" fill="#000000" style="text-anchor:start" transform="matrix(0.750000 0.000000 0.000000 0.750000 238.5 951)">strmOrdTF</text>
  <path d="M312.89996337890625,974.699951171875 C312.89996337890625,987.7891235351562 296.2449645996094,998.3999633789062 275.70001220703125,998.3999633789062 C255.15501403808594,998.3999633789062 238.5,987.7891235351562 238.49998474121094,974.7000122070312 L238.49998474121094,974.7000122070312 C238.49996948242188,961.61083984375 255.15496826171875,951 275.699951171875,951 C296.24493408203125,950.9999389648438 312.89996337890625,961.6107788085938 312.89996337890625,974.699951171875 C312.89996337890625,974.699951171875 312.89996337890625,974.699951171875 312.89996337890625,974.699951171875 " stroke="none" fill="none" stroke-width="0.75" stroke-opacity="0" />
  <path d="M556.9038696289062,639 L614.2960205078125,639 L614.2959594726562,639 C618.9925537109375,638.9999389648438 622.7999267578125,642.8073120117188 622.7999267578125,647.50390625 C622.7999267578125,647.50390625 622.7999267578125,647.50390625 622.7999267578125,647.50390625 L622.7999267578125,647.50390625 L622.7999267578125,677.8960571289062 L622.7999267578125,677.8960571289062 C622.7999267578125,682.5926513671875 618.9926147460938,686.3999633789062 614.2960205078125,686.3999633789062 L614.2960205078125,686.3999633789062 L556.9038696289062,686.3999633789062 L556.9038696289062,686.3999633789062 C552.207275390625,686.3999633789062 548.3999633789062,682.5926513671875 548.3999633789062,677.8960571289062 L548.3999633789062,647.50390625 L548.39990234375,647.50390625 C548.39990234375,642.8073120117188 552.207275390625,639 556.9038696289062,638.9999389648438 " stroke="none" fill="#F2E279" fill-rule="evenodd" stroke-width="0" fill-opacity="1" />
  <text x="19.452356338500977" y="35.284881591796875" dx="0" dy="0" font-family="Segoe UI" font-size="8.249999754130847pt" fill="#000000" style="text-anchor:start" transform="matrix(0.750000 0.000000 0.000000 0.750000 548.3999633789062 639)">Watershed</text>
  <path d="M556.9038696289062,639 L614.2960205078125,639 L614.2959594726562,639 C618.9925537109375,638.9999389648438 622.7999267578125,642.8073120117188 622.7999267578125,647.50390625 C622.7999267578125,647.50390625 622.7999267578125,647.50390625 622.7999267578125,647.50390625 L622.7999267578125,647.50390625 L622.7999267578125,677.8960571289062 L622.7999267578125,677.8960571289062 C622.7999267578125,682.5926513671875 618.9926147460938,686.3999633789062 614.2960205078125,686.3999633789062 L614.2960205078125,686.3999633789062 L556.9038696289062,686.3999633789062 L556.9038696289062,686.3999633789062 C552.207275390625,686.3999633789062 548.3999633789062,682.5926513671875 548.3999633789062,677.8960571289062 L548.3999633789062,647.50390625 L548.39990234375,647.50390625 C548.39990234375,642.8073120117188 552.207275390625,639 556.9038696289062,638.9999389648438 " stroke="none" fill="none" stroke-width="0.75" stroke-opacity="0" />
  <path d="M622.7999267578125,725.0999755859375 C622.7999267578125,738.1891479492188 606.1448974609375,748.7999877929688 585.5999755859375,748.7999877929688 C565.054931640625,748.7999877929688 548.3999633789062,738.1891479492188 548.39990234375,725.1000366210938 L548.39990234375,725.1000366210938 C548.39990234375,712.0108642578125 565.054931640625,701.4000244140625 585.5999145507812,701.4000244140625 C606.1448974609375,701.3999633789062 622.7999267578125,712.0108032226562 622.7999267578125,725.0999755859375 C622.7999267578125,725.0999755859375 622.7999267578125,725.0999755859375 622.7999267578125,725.0999755859375 " stroke="none" fill="#83CC7C" fill-rule="evenodd" stroke-width="0" fill-opacity="1" />
  <text x="21.771690368652344" y="35.284881591796875" dx="0" dy="0" font-family="Segoe UI" font-size="8.249999754130847pt" fill="#000000" style="text-anchor:start" transform="matrix(0.750000 0.000000 0.000000 0.750000 548.3999633789062 701.4000244140625)">ws_Berger</text>
  <path d="M622.7999267578125,725.0999755859375 C622.7999267578125,738.1891479492188 606.1448974609375,748.7999877929688 585.5999755859375,748.7999877929688 C565.054931640625,748.7999877929688 548.3999633789062,738.1891479492188 548.39990234375,725.1000366210938 L548.39990234375,725.1000366210938 C548.39990234375,712.0108642578125 565.054931640625,701.4000244140625 585.5999145507812,701.4000244140625 C606.1448974609375,701.3999633789062 622.7999267578125,712.0108032226562 622.7999267578125,725.0999755859375 C622.7999267578125,725.0999755859375 622.7999267578125,725.0999755859375 622.7999267578125,725.0999755859375 " stroke="none" fill="none" stroke-width="0.75" stroke-opacity="0" />
  <path d="M622.7999267578125,600.2999267578125 C622.7999267578125,613.3890991210938 606.1448974609375,623.9999389648438 585.5999755859375,623.9999389648438 C565.054931640625,623.9999389648438 548.3999633789062,613.3890991210938 548.39990234375,600.2999877929688 L548.39990234375,600.2999877929688 C548.39990234375,587.2108154296875 565.054931640625,576.5999755859375 585.5999145507812,576.5999755859375 C606.1448974609375,576.5999145507812 622.7999267578125,587.2107543945312 622.7999267578125,600.2999267578125 C622.7999267578125,600.2999267578125 622.7999267578125,600.2999267578125 622.7999267578125,600.2999267578125 " stroke="none" fill="#70AECC" fill-rule="evenodd" stroke-width="0" fill-opacity="1" />
  <text x="2.6260223388671875" y="35.284881591796875" dx="0" dy="0" font-family="Segoe UI" font-size="8.249999754130847pt" fill="#000000" style="text-anchor:start" transform="matrix(0.750000 0.000000 0.000000 0.750000 548.3999633789062 576.5999755859375)">Dam_Location_B</text>
  <text x="82.0365219116211" y="35.284881591796875" dx="0" dy="0" font-family="Segoe UI" font-size="8.249999754130847pt" fill="#000000" style="text-anchor:start" transform="matrix(0.750000 0.000000 0.000000 0.750000 548.3999633789062 576.5999755859375)"> ...</text>
  <path d="M622.7999267578125,600.2999267578125 C622.7999267578125,613.3890991210938 606.1448974609375,623.9999389648438 585.5999755859375,623.9999389648438 C565.054931640625,623.9999389648438 548.3999633789062,613.3890991210938 548.39990234375,600.2999877929688 L548.39990234375,600.2999877929688 C548.39990234375,587.2108154296875 565.054931640625,576.5999755859375 585.5999145507812,576.5999755859375 C606.1448974609375,576.5999145507812 622.7999267578125,587.2107543945312 622.7999267578125,600.2999267578125 C622.7999267578125,600.2999267578125 622.7999267578125,600.2999267578125 622.7999267578125,600.2999267578125 " stroke="none" fill="none" stroke-width="0.75" stroke-opacity="0" />
  <path d="M100.07752227783203,264.8952941894531 L157.46963500976562,264.8952941894531 L157.46961975097656,264.8952941894531 C162.1662139892578,264.895263671875 165.97357177734375,268.7026062011719 165.97357177734375,273.3992004394531 C165.97357177734375,273.3992004394531 165.97357177734375,273.39923095703125 165.97357177734375,273.39923095703125 L165.97357177734375,273.39923095703125 L165.97357177734375,303.7913513183594 L165.97357177734375,303.7913513183594 C165.97357177734375,308.4879455566406 162.16622924804688,312.2952880859375 157.46963500976562,312.2952880859375 L157.46963500976562,312.2952880859375 L100.07752227783203,312.2952880859375 L100.07752227783203,312.2952880859375 C95.38092803955078,312.2952880859375 91.5735855102539,308.4879455566406 91.5735855102539,303.7913513183594 L91.5735855102539,273.39923095703125 L91.57357788085938,273.39923095703125 C91.57357788085938,268.70263671875 95.38091278076172,264.8952941894531 100.07750701904297,264.895263671875 " stroke="none" fill="#F2E279" fill-rule="evenodd" stroke-width="0" fill-opacity="1" />
  <text x="6.122522354125977" y="35.284881591796875" dx="0" dy="0" font-family="Segoe UI" font-size="8.249999754130847pt" fill="#000000" style="text-anchor:start" transform="matrix(0.750000 0.000000 0.000000 0.750000 91.5735855102539 264.8952941894531)">Raster Calculator</text>
  <path d="M100.07752227783203,264.8952941894531 L157.46963500976562,264.8952941894531 L157.46961975097656,264.8952941894531 C162.1662139892578,264.895263671875 165.97357177734375,268.7026062011719 165.97357177734375,273.3992004394531 C165.97357177734375,273.3992004394531 165.97357177734375,273.39923095703125 165.97357177734375,273.39923095703125 L165.97357177734375,273.39923095703125 L165.97357177734375,303.7913513183594 L165.97357177734375,303.7913513183594 C165.97357177734375,308.4879455566406 162.16622924804688,312.2952880859375 157.46963500976562,312.2952880859375 L157.46963500976562,312.2952880859375 L100.07752227783203,312.2952880859375 L100.07752227783203,312.2952880859375 C95.38092803955078,312.2952880859375 91.5735855102539,308.4879455566406 91.5735855102539,303.7913513183594 L91.5735855102539,273.39923095703125 L91.57357788085938,273.39923095703125 C91.57357788085938,268.70263671875 95.38091278076172,264.8952941894531 100.07750701904297,264.895263671875 " stroke="none" fill="none" stroke-width="0.75" stroke-opacity="0" />
  <path d="M165.97357177734375,350.99530029296875 C165.97357177734375,364.0844421386719 149.3185577392578,374.6953125 128.77359008789062,374.6953125 C108.22860717773438,374.6953125 91.57359313964844,364.08447265625 91.57357788085938,350.9953308105469 L91.57357788085938,350.9953308105469 C91.57356262207031,337.9061584472656 108.22855377197266,327.2953186035156 128.77354431152344,327.2953186035156 C149.3185272216797,327.2952880859375 165.97354125976562,337.9061279296875 165.97357177734375,350.99530029296875 C165.97357177734375,350.99530029296875 165.97357177734375,350.99530029296875 165.97357177734375,350.99530029296875 " stroke="none" fill="#83CC7C" fill-rule="evenodd" stroke-width="0" fill-opacity="1" />
  <text x="16.080856323242188" y="35.284881591796875" dx="0" dy="0" font-family="Segoe UI" font-size="8.249999754130847pt" fill="#000000" style="text-anchor:start" transform="matrix(0.750000 0.000000 0.000000 0.750000 91.5735855102539 327.2953186035156)">NDVI_Image</text>
  <path d="M165.97357177734375,350.99530029296875 C165.97357177734375,364.0844421386719 149.3185577392578,374.6953125 128.77359008789062,374.6953125 C108.22860717773438,374.6953125 91.57359313964844,364.08447265625 91.57357788085938,350.9953308105469 L91.57357788085938,350.9953308105469 C91.57356262207031,337.9061584472656 108.22855377197266,327.2953186035156 128.77354431152344,327.2953186035156 C149.3185272216797,327.2952880859375 165.97354125976562,337.9061279296875 165.97357177734375,350.99530029296875 C165.97357177734375,350.99530029296875 165.97357177734375,350.99530029296875 165.97357177734375,350.99530029296875 " stroke="none" fill="none" stroke-width="0.75" stroke-opacity="0" />
  <path d="M76.57357025146484,226.19528198242188 C76.57357025146484,239.28443908691406 59.91856384277344,249.89529418945312 39.37359619140625,249.89529418945312 C18.82861328125,249.89529418945312 2.1736016273498535,239.28445434570312 2.173584461212158,226.1953125 L2.173581600189209,226.1953125 C2.1735644340515137,213.1061553955078 18.82855987548828,202.49530029296875 39.3735466003418,202.49530029296875 C59.91853713989258,202.4952850341797 76.57354736328125,213.1061248779297 76.57357025146484,226.19529724121094 C76.57357025146484,226.19529724121094 76.57357025146484,226.19529724121094 76.57357025146484,226.19529724121094 " stroke="none" fill="#70AECC" fill-rule="evenodd" stroke-width="0" fill-opacity="1" />
  <text x="12.361021995544434" y="35.284881591796875" dx="0" dy="0" font-family="Segoe UI" font-size="8.249999754130847pt" fill="#000000" style="text-anchor:start" transform="matrix(0.750000 0.000000 0.000000 0.750000 2.1735873222351074 202.49530029296875)">Landsat_B5.TIF</text>
  <path d="M76.57357025146484,226.19528198242188 C76.57357025146484,239.28443908691406 59.91856384277344,249.89529418945312 39.37359619140625,249.89529418945312 C18.82861328125,249.89529418945312 2.1736016273498535,239.28445434570312 2.173584461212158,226.1953125 L2.173581600189209,226.1953125 C2.1735644340515137,213.1061553955078 18.82855987548828,202.49530029296875 39.3735466003418,202.49530029296875 C59.91853713989258,202.4952850341797 76.57354736328125,213.1061248779297 76.57357025146484,226.19529724121094 C76.57357025146484,226.19529724121094 76.57357025146484,226.19529724121094 76.57357025146484,226.19529724121094 " stroke="none" fill="none" stroke-width="0.75" stroke-opacity="0" />
  <path d="M165.97357177734375,226.19528198242188 C165.97357177734375,239.28443908691406 149.3185577392578,249.89529418945312 128.77359008789062,249.89529418945312 C108.22860717773438,249.89529418945312 91.57359313964844,239.28445434570312 91.57357788085938,226.1953125 L91.57357788085938,226.1953125 C91.57356262207031,213.1061553955078 108.22855377197266,202.49530029296875 128.77354431152344,202.49530029296875 C149.3185272216797,202.4952850341797 165.97354125976562,213.1061248779297 165.97357177734375,226.19529724121094 C165.97357177734375,226.19529724121094 165.97357177734375,226.19529724121094 165.97357177734375,226.19529724121094 " stroke="none" fill="#70AECC" fill-rule="evenodd" stroke-width="0" fill-opacity="1" />
  <text x="12.361021995544434" y="35.284881591796875" dx="0" dy="0" font-family="Segoe UI" font-size="8.249999754130847pt" fill="#000000" style="text-anchor:start" transform="matrix(0.750000 0.000000 0.000000 0.750000 91.5735855102539 202.49530029296875)">Landsat_B4.TIF</text>
  <path d="M165.97357177734375,226.19528198242188 C165.97357177734375,239.28443908691406 149.3185577392578,249.89529418945312 128.77359008789062,249.89529418945312 C108.22860717773438,249.89529418945312 91.57359313964844,239.28445434570312 91.57357788085938,226.1953125 L91.57357788085938,226.1953125 C91.57356262207031,213.1061553955078 108.22855377197266,202.49530029296875 128.77354431152344,202.49530029296875 C149.3185272216797,202.4952850341797 165.97354125976562,213.1061248779297 165.97357177734375,226.19529724121094 C165.97357177734375,226.19529724121094 165.97357177734375,226.19529724121094 165.97357177734375,226.19529724121094 " stroke="none" fill="none" stroke-width="0.75" stroke-opacity="0" />
  <path d="M255.37356567382812,226.19528198242188 C255.37356567382812,239.28443908691406 238.71856689453125,249.89529418945312 218.17359924316406,249.89529418945312 C197.62860107421875,249.89529418945312 180.9735870361328,239.28445434570312 180.97357177734375,226.1953125 L180.97357177734375,226.1953125 C180.9735565185547,213.1061553955078 197.62855529785156,202.49530029296875 218.1735382080078,202.49530029296875 C238.71853637695312,202.4952850341797 255.37355041503906,213.1061248779297 255.37356567382812,226.19529724121094 C255.37356567382812,226.19529724121094 255.37356567382812,226.19529724121094 255.37356567382812,226.19529724121094 " stroke="none" fill="#70AECC" fill-rule="evenodd" stroke-width="0" fill-opacity="1" />
  <text x="4.5710225105285645" y="35.284881591796875" dx="0" dy="0" font-family="Segoe UI" font-size="8.249999754130847pt" fill="#000000" style="text-anchor:start" transform="matrix(0.750000 0.000000 0.000000 0.750000 180.9735870361328 202.49530029296875)">Landsat_B5.TIF (2)</text>
  <path d="M255.37356567382812,226.19528198242188 C255.37356567382812,239.28443908691406 238.71856689453125,249.89529418945312 218.17359924316406,249.89529418945312 C197.62860107421875,249.89529418945312 180.9735870361328,239.28445434570312 180.97357177734375,226.1953125 L180.97357177734375,226.1953125 C180.9735565185547,213.1061553955078 197.62855529785156,202.49530029296875 218.1735382080078,202.49530029296875 C238.71853637695312,202.4952850341797 255.37355041503906,213.1061248779297 255.37356567382812,226.19529724121094 C255.37356567382812,226.19529724121094 255.37356567382812,226.19529724121094 255.37356567382812,226.19529724121094 " stroke="none" fill="none" stroke-width="0.75" stroke-opacity="0" />
  <path d="M344.7735290527344,226.19528198242188 C344.7735290527344,239.28443908691406 328.1185302734375,249.89529418945312 307.5735778808594,249.89529418945312 C287.028564453125,249.89529418945312 270.3735656738281,239.28445434570312 270.37353515625,226.1953125 L270.37353515625,226.1953125 C270.37353515625,213.1061553955078 287.0285339355469,202.49530029296875 307.5735168457031,202.49530029296875 C328.1184997558594,202.4952850341797 344.7735290527344,213.1061248779297 344.7735290527344,226.19529724121094 C344.7735290527344,226.19529724121094 344.7735290527344,226.19529724121094 344.7735290527344,226.19529724121094 " stroke="none" fill="#70AECC" fill-rule="evenodd" stroke-width="0" fill-opacity="1" />
  <text x="4.5710225105285645" y="35.284881591796875" dx="0" dy="0" font-family="Segoe UI" font-size="8.249999754130847pt" fill="#000000" style="text-anchor:start" transform="matrix(0.750000 0.000000 0.000000 0.750000 270.3735656738281 202.49530029296875)">Landsat_B4.TIF (2)</text>
  <path d="M344.7735290527344,226.19528198242188 C344.7735290527344,239.28443908691406 328.1185302734375,249.89529418945312 307.5735778808594,249.89529418945312 C287.028564453125,249.89529418945312 270.3735656738281,239.28445434570312 270.37353515625,226.1953125 L270.37353515625,226.1953125 C270.37353515625,213.1061553955078 287.0285339355469,202.49530029296875 307.5735168457031,202.49530029296875 C328.1184997558594,202.4952850341797 344.7735290527344,213.1061248779297 344.7735290527344,226.19529724121094 C344.7735290527344,226.19529724121094 344.7735290527344,226.19529724121094 344.7735290527344,226.19529724121094 " stroke="none" fill="none" stroke-width="0.75" stroke-opacity="0" />
</svg>