<?xml version="1.0"?>
<svg xmlns="http://www.w3.org/2000/svg" version="1.1" width="1372.3077392578125pt" height="807.53857421875pt" viewBox="-499.85386349120233 9.330708503723145 1372.3077178271312 807.5385904312134" preserveAspectRatio="none" xmlns:xlink="http://www.w3.org/1999/xlink">
  <defs>
  </defs>
  <path d="M186.29998779296875,124.79999542236328 L186.29998779296875,134.09999084472656 " stroke="#6E6E6E" fill="none" stroke-width="1" stroke-opacity="1" />
  <path d="M186.29998779296875,139.8000030517578 L184.07998657226562,134.09999084472656 L188.5199737548828,134.09999084472656 L186.29998779296875,139.8000030517578 " stroke="none" fill="#6E6E6E" fill-rule="evenodd" stroke-width="0" fill-opacity="1" />
  <path d="M186.29998779296875,139.8000030517578 L184.07998657226562,134.09999084472656 L188.5199737548828,134.09999084472656 L186.29998779296875,139.8000030517578 " stroke="#6E6E6E" fill="none" stroke-width="1" stroke-opacity="1" />
  <path d="M215.58770751953125,60.215126037597656 L194.07098388671875,74.28108978271484 " stroke="#6E6E6E" fill="none" stroke-width="1" stroke-opacity="1" />
  <path d="M189.29998779296875,77.39999389648438 L192.85626220703125,72.42290496826172 L195.2857208251953,76.13926696777344 L189.29998779296875,77.39999389648438 " stroke="none" fill="#6E6E6E" fill-rule="evenodd" stroke-width="0" fill-opacity="1" />
  <path d="M189.29998779296875,77.39999389648438 L192.85626220703125,72.42290496826172 L195.2857208251953,76.13926696777344 L189.29998779296875,77.39999389648438 " stroke="#6E6E6E" fill="none" stroke-width="1" stroke-opacity="1" />
  <path d="M144.59999084472656,62.39999771118164 L177.98524475097656,75.34001922607422 " stroke="#6E6E6E" fill="none" stroke-width="1" stroke-opacity="1" />
  <path d="M183.29998779296875,77.39999389648438 L177.1829376220703,77.40997314453125 L178.7875518798828,73.27006530761719 L183.29998779296875,77.39999389648438 " stroke="none" fill="#6E6E6E" fill-rule="evenodd" stroke-width="0" fill-opacity="1" />
  <path d="M183.29998779296875,77.39999389648438 L177.1829376220703,77.40997314453125 L178.7875518798828,73.27006530761719 L183.29998779296875,77.39999389648438 " stroke="#6E6E6E" fill="none" stroke-width="1" stroke-opacity="1" />
  <path d="M96.89999389648438,124.79999542236328 L96.89999389648438,134.09999084472656 " stroke="#6E6E6E" fill="none" stroke-width="1" stroke-opacity="1" />
  <path d="M96.89999389648438,139.8000030517578 L94.67999267578125,134.09999084472656 L99.11998748779297,134.09999084472656 L96.89999389648438,139.8000030517578 " stroke="none" fill="#6E6E6E" fill-rule="evenodd" stroke-width="0" fill-opacity="1" />
  <path d="M96.89999389648438,139.8000030517578 L94.67999267578125,134.09999084472656 L99.11998748779297,134.09999084472656 L96.89999389648438,139.8000030517578 " stroke="#6E6E6E" fill="none" stroke-width="1" stroke-opacity="1" />
  <path d="M67.61226654052734,60.215126037597656 L89.12899780273438,74.28108978271484 " stroke="#6E6E6E" fill="none" stroke-width="1" stroke-opacity="1" />
  <path d="M93.89999389648438,77.39999389648438 L87.91426086425781,76.13926696777344 L90.3437271118164,72.42290496826172 L93.89999389648438,77.39999389648438 " stroke="none" fill="#6E6E6E" fill-rule="evenodd" stroke-width="0" fill-opacity="1" />
  <path d="M93.89999389648438,77.39999389648438 L87.91426086425781,76.13926696777344 L90.3437271118164,72.42290496826172 L93.89999389648438,77.39999389648438 " stroke="#6E6E6E" fill="none" stroke-width="1" stroke-opacity="1" />
  <path d="M138.59999084472656,62.39999771118164 L105.21473693847656,75.34001922607422 " stroke="#6E6E6E" fill="none" stroke-width="1" stroke-opacity="1" />
  <path d="M99.89999389648438,77.4000015258789 L104.41242980957031,73.27006530761719 L106.01704406738281,77.40997314453125 L99.89999389648438,77.4000015258789 " stroke="none" fill="#6E6E6E" fill-rule="evenodd" stroke-width="0" fill-opacity="1" />
  <path d="M99.89999389648438,77.4000015258789 L104.41242980957031,73.27006530761719 L106.01704406738281,77.40997314453125 L99.89999389648438,77.4000015258789 " stroke="#6E6E6E" fill="none" stroke-width="1" stroke-opacity="1" />
  <path d="M320.39996337890625,124.79999542236328 L320.39996337890625,134.09999084472656 " stroke="#6E6E6E" fill="none" stroke-width="1" stroke-opacity="1" />
  <path d="M320.3999938964844,139.8000030517578 L318.17999267578125,134.09999084472656 L322.6199645996094,134.09999084472656 L320.3999938964844,139.8000030517578 " stroke="none" fill="#6E6E6E" fill-rule="evenodd" stroke-width="0" fill-opacity="1" />
  <path d="M320.3999938964844,139.8000030517578 L318.17999267578125,134.09999084472656 L322.6199645996094,134.09999084472656 L320.3999938964844,139.8000030517578 " stroke="#6E6E6E" fill="none" stroke-width="1" stroke-opacity="1" />
  <path d="M320.39996337890625,62.39999771118164 L320.39996337890625,71.69999694824219 " stroke="#6E6E6E" fill="none" stroke-width="1" stroke-opacity="1" />
  <path d="M320.3999938964844,77.4000015258789 L318.17999267578125,71.69999694824219 L322.6199645996094,71.69999694824219 L320.3999938964844,77.4000015258789 " stroke="none" fill="#6E6E6E" fill-rule="evenodd" stroke-width="0" fill-opacity="1" />
  <path d="M320.3999938964844,77.4000015258789 L318.17999267578125,71.69999694824219 L322.6199645996094,71.69999694824219 L320.3999938964844,77.4000015258789 " stroke="#6E6E6E" fill="none" stroke-width="1" stroke-opacity="1" />
  <path d="M320.39996337890625,249.59999084472656 L320.39996337890625,258.8999938964844 " stroke="#6E6E6E" fill="none" stroke-width="1" stroke-opacity="1" />
  <path d="M320.3999938964844,264.6000061035156 L318.17999267578125,258.8999938964844 L322.6199645996094,258.8999938964844 L320.3999938964844,264.6000061035156 " stroke="none" fill="#6E6E6E" fill-rule="evenodd" stroke-width="0" fill-opacity="1" />
  <path d="M320.3999938964844,264.6000061035156 L318.17999267578125,258.8999938964844 L322.6199645996094,258.8999938964844 L320.3999938964844,264.6000061035156 " stroke="#6E6E6E" fill="none" stroke-width="1" stroke-opacity="1" />
  <path d="M320.39996337890625,187.1999969482422 L320.39996337890625,196.5 " stroke="#6E6E6E" fill="none" stroke-width="1" stroke-opacity="1" />
  <path d="M320.3999938964844,202.1999969482422 L318.17999267578125,196.49998474121094 L322.6199645996094,196.49998474121094 L320.3999938964844,202.1999969482422 " stroke="none" fill="#6E6E6E" fill-rule="evenodd" stroke-width="0" fill-opacity="1" />
  <path d="M320.3999938964844,202.1999969482422 L318.17999267578125,196.49998474121094 L322.6199645996094,196.49998474121094 L320.3999938964844,202.1999969482422 " stroke="#6E6E6E" fill="none" stroke-width="1" stroke-opacity="1" />
  <path d="M96.89999389648438,374.3999938964844 L96.89999389648438,383.6999816894531 " stroke="#6E6E6E" fill="none" stroke-width="1" stroke-opacity="1" />
  <path d="M96.89999389648438,389.3999938964844 L94.67999267578125,383.6999816894531 L99.11998748779297,383.6999816894531 L96.89999389648438,389.3999938964844 " stroke="none" fill="#6E6E6E" fill-rule="evenodd" stroke-width="0" fill-opacity="1" />
  <path d="M96.89999389648438,389.3999938964844 L94.67999267578125,383.6999816894531 L99.11998748779297,383.6999816894531 L96.89999389648438,389.3999938964844 " stroke="#6E6E6E" fill="none" stroke-width="1" stroke-opacity="1" />
  <path d="M286.3385925292969,297.80975341796875 L105.5313949584961,326.1182861328125 " stroke="#6E6E6E" fill="none" stroke-width="1" stroke-opacity="1" />
  <path d="M99.89999389648438,327 L105.18798828125,323.9250183105469 L105.87478637695312,328.31158447265625 L99.89999389648438,327 " stroke="none" fill="#6E6E6E" fill-rule="evenodd" stroke-width="0" fill-opacity="1" />
  <path d="M99.89999389648438,327 L105.18798828125,323.9250183105469 L105.87478637695312,328.31158447265625 L99.89999389648438,327 " stroke="#6E6E6E" fill="none" stroke-width="1" stroke-opacity="1" />
  <path d="M96.89999389648438,249.59999084472656 L96.89999389648438,258.8999938964844 " stroke="#6E6E6E" fill="none" stroke-width="1" stroke-opacity="1" />
  <path d="M96.89999389648438,264.6000061035156 L94.67999267578125,258.8999938964844 L99.11998748779297,258.8999938964844 L96.89999389648438,264.6000061035156 " stroke="none" fill="#6E6E6E" fill-rule="evenodd" stroke-width="0" fill-opacity="1" />
  <path d="M96.89999389648438,264.6000061035156 L94.67999267578125,258.8999938964844 L99.11998748779297,258.8999938964844 L96.89999389648438,264.6000061035156 " stroke="#6E6E6E" fill="none" stroke-width="1" stroke-opacity="1" />
  <path d="M96.89999389648438,187.1999969482422 L96.89999389648438,196.5 " stroke="#6E6E6E" fill="none" stroke-width="1" stroke-opacity="1" />
  <path d="M96.89999389648438,202.1999969482422 L94.67999267578125,196.49998474121094 L99.11998748779297,196.49998474121094 L96.89999389648438,202.1999969482422 " stroke="none" fill="#6E6E6E" fill-rule="evenodd" stroke-width="0" fill-opacity="1" />
  <path d="M96.89999389648438,202.1999969482422 L94.67999267578125,196.49998474121094 L99.11998748779297,196.49998474121094 L96.89999389648438,202.1999969482422 " stroke="#6E6E6E" fill="none" stroke-width="1" stroke-opacity="1" />
  <path d="M96.89999389648438,312 L95.01786041259766,321.4106750488281 " stroke="#6E6E6E" fill="none" stroke-width="1" stroke-opacity="1" />
  <path d="M93.89999389648438,326.9999694824219 L92.84097290039062,320.9753112792969 L97.19474792480469,321.8460388183594 L93.89999389648438,326.9999694824219 " stroke="none" fill="#6E6E6E" fill-rule="evenodd" stroke-width="0" fill-opacity="1" />
  <path d="M93.89999389648438,326.9999694824219 L92.84097290039062,320.9753112792969 L97.19474792480469,321.8460388183594 L93.89999389648438,326.9999694824219 " stroke="#6E6E6E" fill="none" stroke-width="1" stroke-opacity="1" />
  <path d="M93.89999389648438,499.1999816894531 L72.38327026367188,513.2659301757812 " stroke="#6E6E6E" fill="none" stroke-width="1" stroke-opacity="1" />
  <path d="M67.61227416992188,516.3848266601562 L71.16854095458984,511.40777587890625 L73.5979995727539,515.1241455078125 L67.61227416992188,516.3848266601562 " stroke="none" fill="#6E6E6E" fill-rule="evenodd" stroke-width="0" fill-opacity="1" />
  <path d="M67.61227416992188,516.3848266601562 L71.16854095458984,511.40777587890625 L73.5979995727539,515.1241455078125 L67.61227416992188,516.3848266601562 " stroke="#6E6E6E" fill="none" stroke-width="1" stroke-opacity="1" />
  <path d="M99.89999389648438,499.1999816894531 L121.41671752929688,513.2659301757812 " stroke="#6E6E6E" fill="none" stroke-width="1" stroke-opacity="1" />
  <path d="M126.1877212524414,516.3848876953125 L120.20198822021484,515.1241455078125 L122.63145446777344,511.40777587890625 L126.1877212524414,516.3848876953125 " stroke="none" fill="#6E6E6E" fill-rule="evenodd" stroke-width="0" fill-opacity="1" />
  <path d="M126.1877212524414,516.3848876953125 L120.20198822021484,515.1241455078125 L122.63145446777344,511.40777587890625 L126.1877212524414,516.3848876953125 " stroke="#6E6E6E" fill="none" stroke-width="1" stroke-opacity="1" />
  <path d="M161.3045654296875,430.54644775390625 L105.28646850585938,449.9356384277344 " stroke="#6E6E6E" fill="none" stroke-width="1" stroke-opacity="1" />
  <path d="M99.89999389648438,451.79998779296875 L104.56033325195312,447.83770751953125 L106.01258850097656,452.0334777832031 L99.89999389648438,451.79998779296875 " stroke="none" fill="#6E6E6E" fill-rule="evenodd" stroke-width="0" fill-opacity="1" />
  <path d="M99.89999389648438,451.79998779296875 L104.56033325195312,447.83770751953125 L106.01258850097656,452.0334777832031 L99.89999389648438,451.79998779296875 " stroke="#6E6E6E" fill="none" stroke-width="1" stroke-opacity="1" />
  <path d="M96.89999389648438,436.8000183105469 L95.01786041259766,446.2106628417969 " stroke="#6E6E6E" fill="none" stroke-width="1" stroke-opacity="1" />
  <path d="M93.89999389648438,451.79998779296875 L92.84097290039062,445.77532958984375 L97.19474792480469,446.64605712890625 L93.89999389648438,451.79998779296875 " stroke="none" fill="#6E6E6E" fill-rule="evenodd" stroke-width="0" fill-opacity="1" />
  <path d="M93.89999389648438,451.79998779296875 L92.84097290039062,445.77532958984375 L97.19474792480469,446.64605712890625 L93.89999389648438,451.79998779296875 " stroke="#6E6E6E" fill="none" stroke-width="1" stroke-opacity="1" />
  <path d="M141.59999084472656,624 L141.59999084472656,633.2999877929688 " stroke="#6E6E6E" fill="none" stroke-width="1" stroke-opacity="1" />
  <path d="M141.59999084472656,639 L139.37998962402344,633.2999877929688 L143.81997680664062,633.2999877929688 L141.59999084472656,639 " stroke="none" fill="#6E6E6E" fill-rule="evenodd" stroke-width="0" fill-opacity="1" />
  <path d="M141.59999084472656,639 L139.37998962402344,633.2999877929688 L143.81997680664062,633.2999877929688 L141.59999084472656,639 " stroke="#6E6E6E" fill="none" stroke-width="1" stroke-opacity="1" />
  <path d="M206.0045623779297,555.346435546875 L152.95635986328125,574.6508178710938 " stroke="#6E6E6E" fill="none" stroke-width="1" stroke-opacity="1" />
  <path d="M147.59999084472656,576.5999755859375 L152.1971893310547,572.5645751953125 L153.71551513671875,576.7369384765625 L147.59999084472656,576.5999755859375 " stroke="none" fill="#6E6E6E" fill-rule="evenodd" stroke-width="0" fill-opacity="1" />
  <path d="M147.59999084472656,576.5999755859375 L152.1971893310547,572.5645751953125 L153.71551513671875,576.7369384765625 L147.59999084472656,576.5999755859375 " stroke="#6E6E6E" fill="none" stroke-width="1" stroke-opacity="1" />
  <path d="M141.59999084472656,561.5999755859375 L141.59999084472656,570.8999633789062 " stroke="#6E6E6E" fill="none" stroke-width="1" stroke-opacity="1" />
  <path d="M141.59999084472656,576.5999755859375 L139.37998962402344,570.8999633789062 L143.81997680664062,570.8999633789062 L141.59999084472656,576.5999755859375 " stroke="none" fill="#6E6E6E" fill-rule="evenodd" stroke-width="0" fill-opacity="1" />
  <path d="M141.59999084472656,576.5999755859375 L139.37998962402344,570.8999633789062 L143.81997680664062,570.8999633789062 L141.59999084472656,576.5999755859375 " stroke="#6E6E6E" fill="none" stroke-width="1" stroke-opacity="1" />
  <path d="M77.1954345703125,555.346435546875 L130.24362182617188,574.6508178710938 " stroke="#6E6E6E" fill="none" stroke-width="1" stroke-opacity="1" />
  <path d="M135.59999084472656,576.5999755859375 L129.48446655273438,576.7369384765625 L131.00277709960938,572.5646362304688 L135.59999084472656,576.5999755859375 " stroke="none" fill="#6E6E6E" fill-rule="evenodd" stroke-width="0" fill-opacity="1" />
  <path d="M135.59999084472656,576.5999755859375 L129.48446655273438,576.7369384765625 L131.00277709960938,572.5646362304688 L135.59999084472656,576.5999755859375 " stroke="#6E6E6E" fill="none" stroke-width="1" stroke-opacity="1" />
  <path d="M141.59999084472656,748.7999877929688 L141.59999084472656,758.0999755859375 " stroke="#6E6E6E" fill="none" stroke-width="1" stroke-opacity="1" />
  <path d="M141.59999084472656,763.7999877929688 L139.37998962402344,758.0999755859375 L143.81997680664062,758.0999755859375 L141.59999084472656,763.7999877929688 " stroke="none" fill="#6E6E6E" fill-rule="evenodd" stroke-width="0" fill-opacity="1" />
  <path d="M141.59999084472656,763.7999877929688 L139.37998962402344,758.0999755859375 L143.81997680664062,758.0999755859375 L141.59999084472656,763.7999877929688 " stroke="#6E6E6E" fill="none" stroke-width="1" stroke-opacity="1" />
  <path d="M141.59999084472656,686.3999633789062 L141.59999084472656,695.7000122070312 " stroke="#6E6E6E" fill="none" stroke-width="1" stroke-opacity="1" />
  <path d="M141.59999084472656,701.4000244140625 L139.37998962402344,695.7000122070312 L143.81997680664062,695.7000122070312 L141.59999084472656,701.4000244140625 " stroke="none" fill="#6E6E6E" fill-rule="evenodd" stroke-width="0" fill-opacity="1" />
  <path d="M141.59999084472656,701.4000244140625 L139.37998962402344,695.7000122070312 L143.81997680664062,695.7000122070312 L141.59999084472656,701.4000244140625 " stroke="#6E6E6E" fill="none" stroke-width="1" stroke-opacity="1" />
  <path d="M157.6039276123047,77.4000015258789 L214.9960479736328,77.4000015258789 L214.99603271484375,77.4000015258789 C219.69261169433594,77.39999389648438 223.49996948242188,81.20732879638672 223.49996948242188,85.9039306640625 C223.49996948242188,85.9039306640625 223.49996948242188,85.90393829345703 223.49996948242188,85.90393829345703 L223.49998474121094,85.90393829345703 L223.49998474121094,116.29606628417969 L223.49996948242188,116.29605865478516 C223.49996948242188,120.9926528930664 219.69264221191406,124.79999542236328 214.9960479736328,124.79999542236328 L214.9960479736328,124.79999542236328 L157.6039276123047,124.79999542236328 L157.6039276123047,124.79999542236328 C152.90733337402344,124.79999542236328 149.09999084472656,120.99266052246094 149.09999084472656,116.29606628417969 L149.09999084472656,85.90393829345703 L149.0999755859375,85.90393829345703 C149.0999755859375,81.20734405517578 152.90731811523438,77.4000015258789 157.60391235351562,77.39999389648438 " stroke="none" fill="#F2E279" fill-rule="evenodd" stroke-width="0" fill-opacity="1" />
  <text x="35.321022033691406" y="35.284881591796875" dx="0" dy="0" font-family="Segoe UI" font-size="8.249999754130847pt" fill="#000000" style="text-anchor:start" transform="matrix(0.750000 0.000000 0.000000 0.750000 149.09999084472656 77.4000015258789)">Snap</text>
  <path d="M157.6039276123047,77.4000015258789 L214.9960479736328,77.4000015258789 L214.99603271484375,77.4000015258789 C219.69261169433594,77.39999389648438 223.49996948242188,81.20732879638672 223.49996948242188,85.9039306640625 C223.49996948242188,85.9039306640625 223.49996948242188,85.90393829345703 223.49996948242188,85.90393829345703 L223.49998474121094,85.90393829345703 L223.49998474121094,116.29606628417969 L223.49996948242188,116.29605865478516 C223.49996948242188,120.9926528930664 219.69264221191406,124.79999542236328 214.9960479736328,124.79999542236328 L214.9960479736328,124.79999542236328 L157.6039276123047,124.79999542236328 L157.6039276123047,124.79999542236328 C152.90733337402344,124.79999542236328 149.09999084472656,120.99266052246094 149.09999084472656,116.29606628417969 L149.09999084472656,85.90393829345703 L149.0999755859375,85.90393829345703 C149.0999755859375,81.20734405517578 152.90731811523438,77.4000015258789 157.60391235351562,77.39999389648438 " stroke="none" fill="none" stroke-width="0.75" stroke-opacity="0" />
  <path d="M223.49996948242188,163.49998474121094 C223.49996948242188,176.58914184570312 206.844970703125,187.1999969482422 186.3000030517578,187.1999969482422 C165.7550048828125,187.1999969482422 149.09999084472656,176.5891571044922 149.0999755859375,163.50001525878906 L149.0999755859375,163.50001525878906 C149.09996032714844,150.41085815429688 165.7549591064453,139.8000030517578 186.29994201660156,139.8000030517578 C206.84494018554688,139.79998779296875 223.4999542236328,150.41082763671875 223.49996948242188,163.5 C223.49996948242188,163.5 223.49996948242188,163.5 223.49996948242188,163.5 " stroke="none" fill="#83CC7C" fill-rule="evenodd" stroke-width="0" fill-opacity="1" />
  <text x="35.49052047729492" y="35.284881591796875" dx="0" dy="0" font-family="Segoe UI" font-size="8.249999754130847pt" fill="#000000" style="text-anchor:start" transform="matrix(0.750000 0.000000 0.000000 0.750000 149.09999084472656 139.8000030517578)">cities</text>
  <path d="M223.49996948242188,163.49998474121094 C223.49996948242188,176.58914184570312 206.844970703125,187.1999969482422 186.3000030517578,187.1999969482422 C165.7550048828125,187.1999969482422 149.09999084472656,176.5891571044922 149.0999755859375,163.50001525878906 L149.0999755859375,163.50001525878906 C149.09996032714844,150.41085815429688 165.7549591064453,139.8000030517578 186.29994201660156,139.8000030517578 C206.84494018554688,139.79998779296875 223.4999542236328,150.41082763671875 223.49996948242188,163.5 C223.49996948242188,163.5 223.49996948242188,163.5 223.49996948242188,163.5 " stroke="none" fill="none" stroke-width="0.75" stroke-opacity="0" />
  <path d="M268.199951171875,38.69999313354492 C268.199951171875,51.78913879394531 251.5449676513672,62.399993896484375 231,62.39999771118164 C210.4550018310547,62.400001525878906 193.79998779296875,51.78915786743164 193.7999725341797,38.70001220703125 L193.7999725341797,38.700016021728516 C193.79995727539062,25.610868453979492 210.4549560546875,15.000008583068848 230.99993896484375,15 C251.54493713378906,14.99998950958252 268.199951171875,25.61083221435547 268.199951171875,38.69999694824219 C268.199951171875,38.69999694824219 268.199951171875,38.69999694824219 268.199951171875,38.69999694824219 " stroke="none" fill="#70AECC" fill-rule="evenodd" stroke-width="0" fill-opacity="1" />
  <text x="27.700523376464844" y="35.284881591796875" dx="0" dy="0" font-family="Segoe UI" font-size="8.249999754130847pt" fill="#000000" style="text-anchor:start" transform="matrix(0.750000 0.000000 0.000000 0.750000 193.79998779296875 15)">cities (2)</text>
  <path d="M268.199951171875,38.69999313354492 C268.199951171875,51.78913879394531 251.5449676513672,62.399993896484375 231,62.39999771118164 C210.4550018310547,62.400001525878906 193.79998779296875,51.78915786743164 193.7999725341797,38.70001220703125 L193.7999725341797,38.700016021728516 C193.79995727539062,25.610868453979492 210.4549560546875,15.000008583068848 230.99993896484375,15 C251.54493713378906,14.99998950958252 268.199951171875,25.61083221435547 268.199951171875,38.69999694824219 C268.199951171875,38.69999694824219 268.199951171875,38.69999694824219 268.199951171875,38.69999694824219 " stroke="none" fill="none" stroke-width="0.75" stroke-opacity="0" />
  <path d="M178.7999725341797,38.69999313354492 C178.7999725341797,51.78913879394531 162.1449737548828,62.399993896484375 141.60000610351562,62.39999771118164 C121.05501556396484,62.400001525878906 104.4000015258789,51.78915786743164 104.39998626708984,38.70001220703125 L104.39998626708984,38.700016021728516 C104.39997100830078,25.610868453979492 121.05496215820312,15.000008583068848 141.59994506835938,15 C162.1449432373047,14.99998950958252 178.79995727539062,25.61083221435547 178.7999725341797,38.69999694824219 C178.7999725341797,38.69999694824219 178.7999725341797,38.69999694824219 178.7999725341797,38.69999694824219 " stroke="none" fill="#70AECC" fill-rule="evenodd" stroke-width="0" fill-opacity="1" />
  <text x="18.066022872924805" y="35.284881591796875" dx="0" dy="0" font-family="Segoe UI" font-size="8.249999754130847pt" fill="#000000" style="text-anchor:start" transform="matrix(0.750000 0.000000 0.000000 0.750000 104.39999389648438 15)">majorroads</text>
  <path d="M178.7999725341797,38.69999313354492 C178.7999725341797,51.78913879394531 162.1449737548828,62.399993896484375 141.60000610351562,62.39999771118164 C121.05501556396484,62.400001525878906 104.4000015258789,51.78915786743164 104.39998626708984,38.70001220703125 L104.39998626708984,38.700016021728516 C104.39997100830078,25.610868453979492 121.05496215820312,15.000008583068848 141.59994506835938,15 C162.1449432373047,14.99998950958252 178.79995727539062,25.61083221435547 178.7999725341797,38.69999694824219 C178.7999725341797,38.69999694824219 178.7999725341797,38.69999694824219 178.7999725341797,38.69999694824219 " stroke="none" fill="none" stroke-width="0.75" stroke-opacity="0" />
  <path d="M68.20393371582031,77.4000015258789 L125.59605407714844,77.4000015258789 L125.59603881835938,77.4000015258789 C130.29261779785156,77.39999389648438 134.0999755859375,81.20732879638672 134.0999755859375,85.9039306640625 C134.0999755859375,85.9039306640625 134.0999755859375,85.90393829345703 134.0999755859375,85.90393829345703 L134.09999084472656,85.90393829345703 L134.09999084472656,116.29606628417969 L134.0999755859375,116.29605865478516 C134.0999755859375,120.9926528930664 130.2926483154297,124.79999542236328 125.59605407714844,124.79999542236328 L125.59605407714844,124.79999542236328 L68.20393371582031,124.79999542236328 L68.20393371582031,124.79999542236328 C63.50734329223633,124.79999542236328 59.69999694824219,120.99266052246094 59.69999694824219,116.29606628417969 L59.69999694824219,85.90393829345703 L59.69999313354492,85.90393829345703 C59.699989318847656,81.20734405517578 63.507328033447266,77.4000015258789 68.20391845703125,77.39999389648438 " stroke="none" fill="#F2E279" fill-rule="evenodd" stroke-width="0" fill-opacity="1" />
  <text x="29.529190063476562" y="35.284881591796875" dx="0" dy="0" font-family="Segoe UI" font-size="8.249999754130847pt" fill="#000000" style="text-anchor:start" transform="matrix(0.750000 0.000000 0.000000 0.750000 59.69999694824219 77.4000015258789)">Merge</text>
  <path d="M68.20393371582031,77.4000015258789 L125.59605407714844,77.4000015258789 L125.59603881835938,77.4000015258789 C130.29261779785156,77.39999389648438 134.0999755859375,81.20732879638672 134.0999755859375,85.9039306640625 C134.0999755859375,85.9039306640625 134.0999755859375,85.90393829345703 134.0999755859375,85.90393829345703 L134.09999084472656,85.90393829345703 L134.09999084472656,116.29606628417969 L134.0999755859375,116.29605865478516 C134.0999755859375,120.9926528930664 130.2926483154297,124.79999542236328 125.59605407714844,124.79999542236328 L125.59605407714844,124.79999542236328 L68.20393371582031,124.79999542236328 L68.20393371582031,124.79999542236328 C63.50734329223633,124.79999542236328 59.69999694824219,120.99266052246094 59.69999694824219,116.29606628417969 L59.69999694824219,85.90393829345703 L59.69999313354492,85.90393829345703 C59.699989318847656,81.20734405517578 63.507328033447266,77.4000015258789 68.20391845703125,77.39999389648438 " stroke="none" fill="none" stroke-width="0.75" stroke-opacity="0" />
  <path d="M134.0999755859375,163.49998474121094 C134.0999755859375,176.58914184570312 117.44497680664062,187.1999969482422 96.90000915527344,187.1999969482422 C76.35501861572266,187.1999969482422 59.700008392333984,176.5891571044922 59.69999313354492,163.50001525878906 L59.699989318847656,163.50001525878906 C59.699974060058594,150.41085815429688 76.35496520996094,139.8000030517578 96.89995574951172,139.8000030517578 C117.4449462890625,139.79998779296875 134.09996032714844,150.41082763671875 134.0999755859375,163.5 C134.0999755859375,163.5 134.0999755859375,163.5 134.0999755859375,163.5 " stroke="none" fill="#83CC7C" fill-rule="evenodd" stroke-width="0" fill-opacity="1" />
  <text x="28.542022705078125" y="35.284881591796875" dx="0" dy="0" font-family="Segoe UI" font-size="8.249999754130847pt" fill="#000000" style="text-anchor:start" transform="matrix(0.750000 0.000000 0.000000 0.750000 59.69999694824219 139.8000030517578)">allroads</text>
  <path d="M134.0999755859375,163.49998474121094 C134.0999755859375,176.58914184570312 117.44497680664062,187.1999969482422 96.90000915527344,187.1999969482422 C76.35501861572266,187.1999969482422 59.700008392333984,176.5891571044922 59.69999313354492,163.50001525878906 L59.699989318847656,163.50001525878906 C59.699974060058594,150.41085815429688 76.35496520996094,139.8000030517578 96.89995574951172,139.8000030517578 C117.4449462890625,139.79998779296875 134.09996032714844,150.41082763671875 134.0999755859375,163.5 C134.0999755859375,163.5 134.0999755859375,163.5 134.0999755859375,163.5 " stroke="none" fill="none" stroke-width="0.75" stroke-opacity="0" />
  <path d="M89.39998626708984,38.69999313354492 C89.39998626708984,51.78913879394531 72.74497985839844,62.399993896484375 52.20001220703125,62.39999771118164 C31.655027389526367,62.400001525878906 15.000014305114746,51.78915786743164 14.99999713897705,38.70001220703125 L14.999994277954102,38.700016021728516 C14.999977111816406,25.610868453979492 31.65497398376465,15.000008583068848 52.1999626159668,15 C72.74494934082031,14.99998950958252 89.39996337890625,25.61083221435547 89.39998626708984,38.69999694824219 C89.39998626708984,38.69999694824219 89.39998626708984,38.69999694824219 89.39998626708984,38.69999694824219 " stroke="none" fill="#70AECC" fill-rule="evenodd" stroke-width="0" fill-opacity="1" />
  <text x="23.810522079467773" y="35.284881591796875" dx="0" dy="0" font-family="Segoe UI" font-size="8.249999754130847pt" fill="#000000" style="text-anchor:start" transform="matrix(0.750000 0.000000 0.000000 0.750000 15 15)">interstates</text>
  <path d="M89.39998626708984,38.69999313354492 C89.39998626708984,51.78913879394531 72.74497985839844,62.399993896484375 52.20001220703125,62.39999771118164 C31.655027389526367,62.400001525878906 15.000014305114746,51.78915786743164 14.99999713897705,38.70001220703125 L14.999994277954102,38.700016021728516 C14.999977111816406,25.610868453979492 31.65497398376465,15.000008583068848 52.1999626159668,15 C72.74494934082031,14.99998950958252 89.39996337890625,25.61083221435547 89.39998626708984,38.69999694824219 C89.39998626708984,38.69999694824219 89.39998626708984,38.69999694824219 89.39998626708984,38.69999694824219 " stroke="none" fill="none" stroke-width="0.75" stroke-opacity="0" />
  <path d="M291.70391845703125,77.4000015258789 L349.0960388183594,77.4000015258789 L349.09600830078125,77.4000015258789 C353.7926025390625,77.39999389648438 357.5999450683594,81.20732879638672 357.5999450683594,85.9039306640625 C357.5999450683594,85.9039306640625 357.5999450683594,85.90393829345703 357.5999450683594,85.90393829345703 L357.5999755859375,85.90393829345703 L357.5999755859375,116.29606628417969 L357.5999450683594,116.29605865478516 C357.5999450683594,120.9926528930664 353.7926330566406,124.79999542236328 349.0960388183594,124.79999542236328 L349.0960388183594,124.79999542236328 L291.70391845703125,124.79999542236328 L291.70391845703125,124.79999542236328 C287.00732421875,124.79999542236328 283.1999816894531,120.99266052246094 283.1999816894531,116.29606628417969 L283.1999816894531,85.90393829345703 L283.199951171875,85.90393829345703 C283.199951171875,81.20734405517578 287.0072937011719,77.4000015258789 291.7038879394531,77.39999389648438 " stroke="none" fill="#F2E279" fill-rule="evenodd" stroke-width="0" fill-opacity="1" />
  <text x="33.801021575927734" y="35.284881591796875" dx="0" dy="0" font-family="Segoe UI" font-size="8.249999754130847pt" fill="#000000" style="text-anchor:start" transform="matrix(0.750000 0.000000 0.000000 0.750000 283.1999816894531 77.4000015258789)">Slope</text>
  <path d="M291.70391845703125,77.4000015258789 L349.0960388183594,77.4000015258789 L349.09600830078125,77.4000015258789 C353.7926025390625,77.39999389648438 357.5999450683594,81.20732879638672 357.5999450683594,85.9039306640625 C357.5999450683594,85.9039306640625 357.5999450683594,85.90393829345703 357.5999450683594,85.90393829345703 L357.5999755859375,85.90393829345703 L357.5999755859375,116.29606628417969 L357.5999450683594,116.29605865478516 C357.5999450683594,120.9926528930664 353.7926330566406,124.79999542236328 349.0960388183594,124.79999542236328 L349.0960388183594,124.79999542236328 L291.70391845703125,124.79999542236328 L291.70391845703125,124.79999542236328 C287.00732421875,124.79999542236328 283.1999816894531,120.99266052246094 283.1999816894531,116.29606628417969 L283.1999816894531,85.90393829345703 L283.199951171875,85.90393829345703 C283.199951171875,81.20734405517578 287.0072937011719,77.4000015258789 291.7038879394531,77.39999389648438 " stroke="none" fill="none" stroke-width="0.75" stroke-opacity="0" />
  <path d="M357.5999450683594,163.49998474121094 C357.5999450683594,176.58914184570312 340.9449462890625,187.1999969482422 320.3999938964844,187.1999969482422 C299.85498046875,187.1999969482422 283.1999816894531,176.5891571044922 283.199951171875,163.50001525878906 L283.199951171875,163.50001525878906 C283.199951171875,150.41085815429688 299.8549499511719,139.8000030517578 320.3999328613281,139.8000030517578 C340.9449157714844,139.79998779296875 357.5999450683594,150.41082763671875 357.5999450683594,163.5 C357.5999450683594,163.5 357.5999450683594,163.5 357.5999450683594,163.5 " stroke="none" fill="#83CC7C" fill-rule="evenodd" stroke-width="0" fill-opacity="1" />
  <text x="17.175189971923828" y="35.284881591796875" dx="0" dy="0" font-family="Segoe UI" font-size="8.249999754130847pt" fill="#000000" style="text-anchor:start" transform="matrix(0.750000 0.000000 0.000000 0.750000 283.1999816894531 139.8000030517578)">usDEMslope</text>
  <path d="M357.5999450683594,163.49998474121094 C357.5999450683594,176.58914184570312 340.9449462890625,187.1999969482422 320.3999938964844,187.1999969482422 C299.85498046875,187.1999969482422 283.1999816894531,176.5891571044922 283.199951171875,163.50001525878906 L283.199951171875,163.50001525878906 C283.199951171875,150.41085815429688 299.8549499511719,139.8000030517578 320.3999328613281,139.8000030517578 C340.9449157714844,139.79998779296875 357.5999450683594,150.41082763671875 357.5999450683594,163.5 C357.5999450683594,163.5 357.5999450683594,163.5 357.5999450683594,163.5 " stroke="none" fill="none" stroke-width="0.75" stroke-opacity="0" />
  <path d="M357.5999450683594,38.69999313354492 C357.5999450683594,51.78913879394531 340.9449462890625,62.399993896484375 320.3999938964844,62.39999771118164 C299.85498046875,62.400001525878906 283.1999816894531,51.78915786743164 283.199951171875,38.70001220703125 L283.199951171875,38.700016021728516 C283.199951171875,25.610868453979492 299.8549499511719,15.000008583068848 320.3999328613281,15 C340.9449157714844,14.99998950958252 357.5999450683594,25.61083221435547 357.5999450683594,38.69999694824219 C357.5999450683594,38.69999694824219 357.5999450683594,38.69999694824219 357.5999450683594,38.69999694824219 " stroke="none" fill="#70AECC" fill-rule="evenodd" stroke-width="0" fill-opacity="1" />
  <text x="30.89518928527832" y="35.284881591796875" dx="0" dy="0" font-family="Segoe UI" font-size="8.249999754130847pt" fill="#000000" style="text-anchor:start" transform="matrix(0.750000 0.000000 0.000000 0.750000 283.1999816894531 15)">usdem</text>
  <path d="M357.5999450683594,38.69999313354492 C357.5999450683594,51.78913879394531 340.9449462890625,62.399993896484375 320.3999938964844,62.39999771118164 C299.85498046875,62.400001525878906 283.1999816894531,51.78915786743164 283.199951171875,38.70001220703125 L283.199951171875,38.700016021728516 C283.199951171875,25.610868453979492 299.8549499511719,15.000008583068848 320.3999328613281,15 C340.9449157714844,14.99998950958252 357.5999450683594,25.61083221435547 357.5999450683594,38.69999694824219 C357.5999450683594,38.69999694824219 357.5999450683594,38.69999694824219 357.5999450683594,38.69999694824219 " stroke="none" fill="none" stroke-width="0.75" stroke-opacity="0" />
  <path d="M291.70391845703125,202.1999969482422 L349.0960388183594,202.1999969482422 L349.09600830078125,202.1999969482422 C353.7926025390625,202.19998168945312 357.5999450683594,206.00732421875 357.5999450683594,210.70391845703125 C357.5999450683594,210.70391845703125 357.5999450683594,210.7039337158203 357.5999450683594,210.7039337158203 L357.5999755859375,210.7039337158203 L357.5999755859375,241.09605407714844 L357.5999450683594,241.09605407714844 C357.5999450683594,245.7926483154297 353.7926330566406,249.59999084472656 349.0960388183594,249.59999084472656 L349.0960388183594,249.59999084472656 L291.70391845703125,249.59999084472656 L291.70391845703125,249.59999084472656 C287.00732421875,249.59999084472656 283.1999816894531,245.7926483154297 283.1999816894531,241.09605407714844 L283.1999816894531,210.7039337158203 L283.199951171875,210.7039337158203 C283.199951171875,206.00733947753906 287.0072937011719,202.1999969482422 291.7038879394531,202.19998168945312 " stroke="none" fill="#F2E279" fill-rule="evenodd" stroke-width="0" fill-opacity="1" />
  <text x="24.12202262878418" y="35.284881591796875" dx="0" dy="0" font-family="Segoe UI" font-size="8.249999754130847pt" fill="#000000" style="text-anchor:start" transform="matrix(0.750000 0.000000 0.000000 0.750000 283.1999816894531 202.1999969482422)">Reclassify</text>
  <path d="M291.70391845703125,202.1999969482422 L349.0960388183594,202.1999969482422 L349.09600830078125,202.1999969482422 C353.7926025390625,202.19998168945312 357.5999450683594,206.00732421875 357.5999450683594,210.70391845703125 C357.5999450683594,210.70391845703125 357.5999450683594,210.7039337158203 357.5999450683594,210.7039337158203 L357.5999755859375,210.7039337158203 L357.5999755859375,241.09605407714844 L357.5999450683594,241.09605407714844 C357.5999450683594,245.7926483154297 353.7926330566406,249.59999084472656 349.0960388183594,249.59999084472656 L349.0960388183594,249.59999084472656 L291.70391845703125,249.59999084472656 L291.70391845703125,249.59999084472656 C287.00732421875,249.59999084472656 283.1999816894531,245.7926483154297 283.1999816894531,241.09605407714844 L283.1999816894531,210.7039337158203 L283.199951171875,210.7039337158203 C283.199951171875,206.00733947753906 287.0072937011719,202.1999969482422 291.7038879394531,202.19998168945312 " stroke="none" fill="none" stroke-width="0.75" stroke-opacity="0" />
  <path d="M357.5999450683594,288.29998779296875 C357.5999450683594,301.3891296386719 340.9449462890625,312 320.3999938964844,312 C299.85498046875,312 283.1999816894531,301.38916015625 283.199951171875,288.3000183105469 L283.199951171875,288.3000183105469 C283.199951171875,275.2108459472656 299.8549499511719,264.6000061035156 320.3999328613281,264.6000061035156 C340.9449157714844,264.5999755859375 357.5999450683594,275.2108154296875 357.5999450683594,288.29998779296875 C357.5999450683594,288.29998779296875 357.5999450683594,288.29998779296875 357.5999450683594,288.29998779296875 " stroke="none" fill="#83CC7C" fill-rule="evenodd" stroke-width="0" fill-opacity="1" />
  <text x="18.752689361572266" y="35.284881591796875" dx="0" dy="0" font-family="Segoe UI" font-size="8.249999754130847pt" fill="#000000" style="text-anchor:start" transform="matrix(0.750000 0.000000 0.000000 0.750000 283.1999816894531 264.6000061035156)">DEMreclass</text>
  <path d="M357.5999450683594,288.29998779296875 C357.5999450683594,301.3891296386719 340.9449462890625,312 320.3999938964844,312 C299.85498046875,312 283.1999816894531,301.38916015625 283.199951171875,288.3000183105469 L283.199951171875,288.3000183105469 C283.199951171875,275.2108459472656 299.8549499511719,264.6000061035156 320.3999328613281,264.6000061035156 C340.9449157714844,264.5999755859375 357.5999450683594,275.2108154296875 357.5999450683594,288.29998779296875 C357.5999450683594,288.29998779296875 357.5999450683594,288.29998779296875 357.5999450683594,288.29998779296875 " stroke="none" fill="none" stroke-width="0.75" stroke-opacity="0" />
  <path d="M68.20393371582031,327 L125.59605407714844,327 L125.59603881835938,327 C130.29261779785156,326.9999694824219 134.0999755859375,330.80731201171875 134.0999755859375,335.50390625 C134.0999755859375,335.50390625 134.0999755859375,335.5039367675781 134.0999755859375,335.5039367675781 L134.09999084472656,335.5039367675781 L134.09999084472656,365.89605712890625 L134.0999755859375,365.89605712890625 C134.0999755859375,370.5926513671875 130.2926483154297,374.3999938964844 125.59605407714844,374.3999938964844 L125.59605407714844,374.3999938964844 L68.20393371582031,374.3999938964844 L68.20393371582031,374.3999938964844 C63.50734329223633,374.3999938964844 59.69999694824219,370.5926513671875 59.69999694824219,365.89605712890625 L59.69999694824219,335.5039367675781 L59.69999313354492,335.5039367675781 C59.699989318847656,330.8073425292969 63.507328033447266,327 68.20391845703125,326.9999694824219 " stroke="none" fill="#F2E279" fill-rule="evenodd" stroke-width="0" fill-opacity="1" />
  <text x="33.26618957519531" y="35.284881591796875" dx="0" dy="0" font-family="Segoe UI" font-size="8.249999754130847pt" fill="#000000" style="text-anchor:start" transform="matrix(0.750000 0.000000 0.000000 0.750000 59.69999694824219 327)">Times</text>
  <path d="M68.20393371582031,327 L125.59605407714844,327 L125.59603881835938,327 C130.29261779785156,326.9999694824219 134.0999755859375,330.80731201171875 134.0999755859375,335.50390625 C134.0999755859375,335.50390625 134.0999755859375,335.5039367675781 134.0999755859375,335.5039367675781 L134.09999084472656,335.5039367675781 L134.09999084472656,365.89605712890625 L134.0999755859375,365.89605712890625 C134.0999755859375,370.5926513671875 130.2926483154297,374.3999938964844 125.59605407714844,374.3999938964844 L125.59605407714844,374.3999938964844 L68.20393371582031,374.3999938964844 L68.20393371582031,374.3999938964844 C63.50734329223633,374.3999938964844 59.69999694824219,370.5926513671875 59.69999694824219,365.89605712890625 L59.69999694824219,335.5039367675781 L59.69999313354492,335.5039367675781 C59.699989318847656,330.8073425292969 63.507328033447266,327 68.20391845703125,326.9999694824219 " stroke="none" fill="none" stroke-width="0.75" stroke-opacity="0" />
  <path d="M134.0999755859375,413.0999755859375 C134.0999755859375,426.1891174316406 117.44497680664062,436.79998779296875 96.90000915527344,436.79998779296875 C76.35501861572266,436.79998779296875 59.700008392333984,426.18914794921875 59.69999313354492,413.1000061035156 L59.699989318847656,413.1000061035156 C59.699974060058594,400.0108337402344 76.35496520996094,389.3999938964844 96.89995574951172,389.3999938964844 C117.4449462890625,389.39996337890625 134.09996032714844,400.01080322265625 134.0999755859375,413.0999755859375 C134.0999755859375,413.0999755859375 134.0999755859375,413.0999755859375 134.0999755859375,413.0999755859375 " stroke="none" fill="#83CC7C" fill-rule="evenodd" stroke-width="0" fill-opacity="1" />
  <text x="22.527189254760742" y="35.284881591796875" dx="0" dy="0" font-family="Segoe UI" font-size="8.249999754130847pt" fill="#000000" style="text-anchor:start" transform="matrix(0.750000 0.000000 0.000000 0.750000 59.69999694824219 389.3999938964844)">cost_slope</text>
  <path d="M134.0999755859375,413.0999755859375 C134.0999755859375,426.1891174316406 117.44497680664062,436.79998779296875 96.90000915527344,436.79998779296875 C76.35501861572266,436.79998779296875 59.700008392333984,426.18914794921875 59.69999313354492,413.1000061035156 L59.699989318847656,413.1000061035156 C59.699974060058594,400.0108337402344 76.35496520996094,389.3999938964844 96.89995574951172,389.3999938964844 C117.4449462890625,389.39996337890625 134.09996032714844,400.01080322265625 134.0999755859375,413.0999755859375 C134.0999755859375,413.0999755859375 134.0999755859375,413.0999755859375 134.0999755859375,413.0999755859375 " stroke="none" fill="none" stroke-width="0.75" stroke-opacity="0" />
  <path d="M68.20393371582031,202.1999969482422 L125.59605407714844,202.1999969482422 L125.59603881835938,202.1999969482422 C130.29261779785156,202.19998168945312 134.0999755859375,206.00732421875 134.0999755859375,210.70391845703125 C134.0999755859375,210.70391845703125 134.0999755859375,210.7039337158203 134.0999755859375,210.7039337158203 L134.09999084472656,210.7039337158203 L134.09999084472656,241.09605407714844 L134.0999755859375,241.09605407714844 C134.0999755859375,245.7926483154297 130.2926483154297,249.59999084472656 125.59605407714844,249.59999084472656 L125.59605407714844,249.59999084472656 L68.20393371582031,249.59999084472656 L68.20393371582031,249.59999084472656 C63.50734329223633,249.59999084472656 59.69999694824219,245.7926483154297 59.69999694824219,241.09605407714844 L59.69999694824219,210.7039337158203 L59.69999313354492,210.7039337158203 C59.699989318847656,206.00733947753906 63.507328033447266,202.1999969482422 68.20391845703125,202.19998168945312 " stroke="none" fill="#F2E279" fill-rule="evenodd" stroke-width="0" fill-opacity="1" />
  <text x="6.324189186096191" y="35.284881591796875" dx="0" dy="0" font-family="Segoe UI" font-size="8.249999754130847pt" fill="#000000" style="text-anchor:start" transform="matrix(0.750000 0.000000 0.000000 0.750000 59.69999694824219 202.1999969482422)">Feature to Raster</text>
  <path d="M68.20393371582031,202.1999969482422 L125.59605407714844,202.1999969482422 L125.59603881835938,202.1999969482422 C130.29261779785156,202.19998168945312 134.0999755859375,206.00732421875 134.0999755859375,210.70391845703125 C134.0999755859375,210.70391845703125 134.0999755859375,210.7039337158203 134.0999755859375,210.7039337158203 L134.09999084472656,210.7039337158203 L134.09999084472656,241.09605407714844 L134.0999755859375,241.09605407714844 C134.0999755859375,245.7926483154297 130.2926483154297,249.59999084472656 125.59605407714844,249.59999084472656 L125.59605407714844,249.59999084472656 L68.20393371582031,249.59999084472656 L68.20393371582031,249.59999084472656 C63.50734329223633,249.59999084472656 59.69999694824219,245.7926483154297 59.69999694824219,241.09605407714844 L59.69999694824219,210.7039337158203 L59.69999313354492,210.7039337158203 C59.699989318847656,206.00733947753906 63.507328033447266,202.1999969482422 68.20391845703125,202.19998168945312 " stroke="none" fill="none" stroke-width="0.75" stroke-opacity="0" />
  <path d="M134.0999755859375,288.29998779296875 C134.0999755859375,301.3891296386719 117.44497680664062,312 96.90000915527344,312 C76.35501861572266,312 59.700008392333984,301.38916015625 59.69999313354492,288.3000183105469 L59.699989318847656,288.3000183105469 C59.699974060058594,275.2108459472656 76.35496520996094,264.6000061035156 96.89995574951172,264.6000061035156 C117.4449462890625,264.5999755859375 134.09996032714844,275.2108154296875 134.0999755859375,288.29998779296875 C134.0999755859375,288.29998779296875 134.0999755859375,288.29998779296875 134.0999755859375,288.29998779296875 " stroke="none" fill="#83CC7C" fill-rule="evenodd" stroke-width="0" fill-opacity="1" />
  <text x="10.240522384643555" y="35.284881591796875" dx="0" dy="0" font-family="Segoe UI" font-size="8.249999754130847pt" fill="#000000" style="text-anchor:start" transform="matrix(0.750000 0.000000 0.000000 0.750000 59.69999694824219 264.6000061035156)">cost_minpercell</text>
  <path d="M134.0999755859375,288.29998779296875 C134.0999755859375,301.3891296386719 117.44497680664062,312 96.90000915527344,312 C76.35501861572266,312 59.700008392333984,301.38916015625 59.69999313354492,288.3000183105469 L59.699989318847656,288.3000183105469 C59.699974060058594,275.2108459472656 76.35496520996094,264.6000061035156 96.89995574951172,264.6000061035156 C117.4449462890625,264.5999755859375 134.09996032714844,275.2108154296875 134.0999755859375,288.29998779296875 C134.0999755859375,288.29998779296875 134.0999755859375,288.29998779296875 134.0999755859375,288.29998779296875 " stroke="none" fill="none" stroke-width="0.75" stroke-opacity="0" />
  <path d="M68.20393371582031,451.8000183105469 L125.59605407714844,451.8000183105469 L125.59603881835938,451.8000183105469 C130.29261779785156,451.79998779296875 134.0999755859375,455.6073303222656 134.0999755859375,460.3039245605469 C134.0999755859375,460.3039245605469 134.0999755859375,460.303955078125 134.0999755859375,460.303955078125 L134.09999084472656,460.303955078125 L134.09999084472656,490.6960754394531 L134.0999755859375,490.6960754394531 C134.0999755859375,495.3926696777344 130.2926483154297,499.20001220703125 125.59605407714844,499.20001220703125 L125.59605407714844,499.20001220703125 L68.20393371582031,499.20001220703125 L68.20393371582031,499.20001220703125 C63.50734329223633,499.20001220703125 59.69999694824219,495.3926696777344 59.69999694824219,490.6960754394531 L59.69999694824219,460.303955078125 L59.69999313354492,460.303955078125 C59.699989318847656,455.60736083984375 63.507328033447266,451.8000183105469 68.20391845703125,451.79998779296875 " stroke="none" fill="#F2E279" fill-rule="evenodd" stroke-width="0" fill-opacity="1" />
  <text x="13.857022285461426" y="35.284881591796875" dx="0" dy="0" font-family="Segoe UI" font-size="8.249999754130847pt" fill="#000000" style="text-anchor:start" transform="matrix(0.750000 0.000000 0.000000 0.750000 59.69999694824219 451.8000183105469)">Cost Distance</text>
  <path d="M68.20393371582031,451.8000183105469 L125.59605407714844,451.8000183105469 L125.59603881835938,451.8000183105469 C130.29261779785156,451.79998779296875 134.0999755859375,455.6073303222656 134.0999755859375,460.3039245605469 C134.0999755859375,460.3039245605469 134.0999755859375,460.303955078125 134.0999755859375,460.303955078125 L134.09999084472656,460.303955078125 L134.09999084472656,490.6960754394531 L134.0999755859375,490.6960754394531 C134.0999755859375,495.3926696777344 130.2926483154297,499.20001220703125 125.59605407714844,499.20001220703125 L125.59605407714844,499.20001220703125 L68.20393371582031,499.20001220703125 L68.20393371582031,499.20001220703125 C63.50734329223633,499.20001220703125 59.69999694824219,495.3926696777344 59.69999694824219,490.6960754394531 L59.69999694824219,460.303955078125 L59.69999313354492,460.303955078125 C59.699989318847656,455.60736083984375 63.507328033447266,451.8000183105469 68.20391845703125,451.79998779296875 " stroke="none" fill="none" stroke-width="0.75" stroke-opacity="0" />
  <path d="M89.39998626708984,537.8999633789062 C89.39998626708984,550.9891357421875 72.74497985839844,561.5999755859375 52.20001220703125,561.5999755859375 C31.655027389526367,561.5999755859375 15.000014305114746,550.9891357421875 14.99999713897705,537.9000244140625 L14.999994277954102,537.9000244140625 C14.999977111816406,524.8108520507812 31.65497398376465,514.2000122070312 52.1999626159668,514.2000122070312 C72.74494934082031,514.199951171875 89.39996337890625,524.810791015625 89.39998626708984,537.8999633789062 C89.39998626708984,537.8999633789062 89.39998626708984,537.8999633789062 89.39998626708984,537.8999633789062 " stroke="none" fill="#83CC7C" fill-rule="evenodd" stroke-width="0" fill-opacity="1" />
  <text x="2.227189064025879" y="35.284881591796875" dx="0" dy="0" font-family="Segoe UI" font-size="8.249999754130847pt" fill="#000000" style="text-anchor:start" transform="matrix(0.750000 0.000000 0.000000 0.750000 15 514.2000122070312)">cost_distance_slo</text>
  <text x="83.75652313232422" y="35.284881591796875" dx="0" dy="0" font-family="Segoe UI" font-size="8.249999754130847pt" fill="#000000" style="text-anchor:start" transform="matrix(0.750000 0.000000 0.000000 0.750000 15 514.2000122070312)"> ...</text>
  <path d="M89.39998626708984,537.8999633789062 C89.39998626708984,550.9891357421875 72.74497985839844,561.5999755859375 52.20001220703125,561.5999755859375 C31.655027389526367,561.5999755859375 15.000014305114746,550.9891357421875 14.99999713897705,537.9000244140625 L14.999994277954102,537.9000244140625 C14.999977111816406,524.8108520507812 31.65497398376465,514.2000122070312 52.1999626159668,514.2000122070312 C72.74494934082031,514.199951171875 89.39996337890625,524.810791015625 89.39998626708984,537.8999633789062 C89.39998626708984,537.8999633789062 89.39998626708984,537.8999633789062 89.39998626708984,537.8999633789062 " stroke="none" fill="none" stroke-width="0.75" stroke-opacity="0" />
  <path d="M178.7999725341797,537.8999633789062 C178.7999725341797,550.9891357421875 162.1449737548828,561.5999755859375 141.60000610351562,561.5999755859375 C121.05501556396484,561.5999755859375 104.4000015258789,550.9891357421875 104.39998626708984,537.9000244140625 L104.39998626708984,537.9000244140625 C104.39997100830078,524.8108520507812 121.05496215820312,514.2000122070312 141.59994506835938,514.2000122070312 C162.1449432373047,514.199951171875 178.79995727539062,524.810791015625 178.7999725341797,537.8999633789062 C178.7999725341797,537.8999633789062 178.7999725341797,537.8999633789062 178.7999725341797,537.8999633789062 " stroke="none" fill="#83CC7C" fill-rule="evenodd" stroke-width="0" fill-opacity="1" />
  <text x="3.8008556365966797" y="35.284881591796875" dx="0" dy="0" font-family="Segoe UI" font-size="8.249999754130847pt" fill="#000000" style="text-anchor:start" transform="matrix(0.750000 0.000000 0.000000 0.750000 104.39999389648438 514.2000122070312)">backlink_slope_t</text>
  <text x="81.48986053466797" y="35.284881591796875" dx="0" dy="0" font-family="Segoe UI" font-size="8.249999754130847pt" fill="#000000" style="text-anchor:start" transform="matrix(0.750000 0.000000 0.000000 0.750000 104.39999389648438 514.2000122070312)"> ...</text>
  <path d="M178.7999725341797,537.8999633789062 C178.7999725341797,550.9891357421875 162.1449737548828,561.5999755859375 141.60000610351562,561.5999755859375 C121.05501556396484,561.5999755859375 104.4000015258789,550.9891357421875 104.39998626708984,537.9000244140625 L104.39998626708984,537.9000244140625 C104.39997100830078,524.8108520507812 121.05496215820312,514.2000122070312 141.59994506835938,514.2000122070312 C162.1449432373047,514.199951171875 178.79995727539062,524.810791015625 178.7999725341797,537.8999633789062 C178.7999725341797,537.8999633789062 178.7999725341797,537.8999633789062 178.7999725341797,537.8999633789062 " stroke="none" fill="none" stroke-width="0.75" stroke-opacity="0" />
  <path d="M223.49996948242188,413.0999755859375 C223.49996948242188,426.1891174316406 206.844970703125,436.79998779296875 186.3000030517578,436.79998779296875 C165.7550048828125,436.79998779296875 149.09999084472656,426.18914794921875 149.0999755859375,413.1000061035156 L149.0999755859375,413.1000061035156 C149.09996032714844,400.0108337402344 165.7549591064453,389.3999938964844 186.29994201660156,389.3999938964844 C206.84494018554688,389.39996337890625 223.4999542236328,400.01080322265625 223.49996948242188,413.0999755859375 C223.49996948242188,413.0999755859375 223.49996948242188,413.0999755859375 223.49996948242188,413.0999755859375 " stroke="none" fill="#70AECC" fill-rule="evenodd" stroke-width="0" fill-opacity="1" />
  <text x="29.182689666748047" y="35.284881591796875" dx="0" dy="0" font-family="Segoe UI" font-size="8.249999754130847pt" fill="#000000" style="text-anchor:start" transform="matrix(0.750000 0.000000 0.000000 0.750000 149.09999084472656 389.3999938964844)">Denver</text>
  <path d="M223.49996948242188,413.0999755859375 C223.49996948242188,426.1891174316406 206.844970703125,436.79998779296875 186.3000030517578,436.79998779296875 C165.7550048828125,436.79998779296875 149.09999084472656,426.18914794921875 149.0999755859375,413.1000061035156 L149.0999755859375,413.1000061035156 C149.09996032714844,400.0108337402344 165.7549591064453,389.3999938964844 186.29994201660156,389.3999938964844 C206.84494018554688,389.39996337890625 223.4999542236328,400.01080322265625 223.49996948242188,413.0999755859375 C223.49996948242188,413.0999755859375 223.49996948242188,413.0999755859375 223.49996948242188,413.0999755859375 " stroke="none" fill="none" stroke-width="0.75" stroke-opacity="0" />
  <path d="M112.9039306640625,576.5999755859375 L170.29605102539062,576.5999755859375 L170.29603576660156,576.5999755859375 C174.99261474609375,576.5999145507812 178.7999725341797,580.4072875976562 178.7999725341797,585.1038818359375 C178.7999725341797,585.1038818359375 178.7999725341797,585.1038818359375 178.7999725341797,585.1038818359375 L178.79998779296875,585.1038818359375 L178.79998779296875,615.4960327148438 L178.7999725341797,615.4960327148438 C178.7999725341797,620.192626953125 174.99264526367188,623.9999389648438 170.29605102539062,623.9999389648438 L170.29605102539062,623.9999389648438 L112.9039306640625,623.9999389648438 L112.9039306640625,623.9999389648438 C108.20733642578125,623.9999389648438 104.39999389648438,620.192626953125 104.39999389648438,615.4960327148438 L104.39999389648438,585.1038818359375 L104.39998626708984,585.1038818359375 C104.39998626708984,580.4072875976562 108.20732116699219,576.5999755859375 112.90391540527344,576.5999145507812 " stroke="none" fill="#F2E279" fill-rule="evenodd" stroke-width="0" fill-opacity="1" />
  <text x="23.903690338134766" y="35.284881591796875" dx="0" dy="0" font-family="Segoe UI" font-size="8.249999754130847pt" fill="#000000" style="text-anchor:start" transform="matrix(0.750000 0.000000 0.000000 0.750000 104.39999389648438 576.5999755859375)">Cost Path</text>
  <path d="M112.9039306640625,576.5999755859375 L170.29605102539062,576.5999755859375 L170.29603576660156,576.5999755859375 C174.99261474609375,576.5999145507812 178.7999725341797,580.4072875976562 178.7999725341797,585.1038818359375 C178.7999725341797,585.1038818359375 178.7999725341797,585.1038818359375 178.7999725341797,585.1038818359375 L178.79998779296875,585.1038818359375 L178.79998779296875,615.4960327148438 L178.7999725341797,615.4960327148438 C178.7999725341797,620.192626953125 174.99264526367188,623.9999389648438 170.29605102539062,623.9999389648438 L170.29605102539062,623.9999389648438 L112.9039306640625,623.9999389648438 L112.9039306640625,623.9999389648438 C108.20733642578125,623.9999389648438 104.39999389648438,620.192626953125 104.39999389648438,615.4960327148438 L104.39999389648438,585.1038818359375 L104.39998626708984,585.1038818359375 C104.39998626708984,580.4072875976562 108.20732116699219,576.5999755859375 112.90391540527344,576.5999145507812 " stroke="none" fill="none" stroke-width="0.75" stroke-opacity="0" />
  <path d="M178.7999725341797,662.699951171875 C178.7999725341797,675.7891235351562 162.1449737548828,686.3999633789062 141.60000610351562,686.3999633789062 C121.05501556396484,686.3999633789062 104.4000015258789,675.7891235351562 104.39998626708984,662.7000122070312 L104.39998626708984,662.7000122070312 C104.39997100830078,649.61083984375 121.05496215820312,639 141.59994506835938,639 C162.1449432373047,638.9999389648438 178.79995727539062,649.6107788085938 178.7999725341797,662.699951171875 C178.7999725341797,662.699951171875 178.7999725341797,662.699951171875 178.7999725341797,662.699951171875 " stroke="none" fill="#83CC7C" fill-rule="evenodd" stroke-width="0" fill-opacity="1" />
  <text x="4.030855655670166" y="35.284881591796875" dx="0" dy="0" font-family="Segoe UI" font-size="8.249999754130847pt" fill="#000000" style="text-anchor:start" transform="matrix(0.750000 0.000000 0.000000 0.750000 104.39999389648438 639)">rpath_slope_Den</text>
  <text x="82.57652282714844" y="35.284881591796875" dx="0" dy="0" font-family="Segoe UI" font-size="8.249999754130847pt" fill="#000000" style="text-anchor:start" transform="matrix(0.750000 0.000000 0.000000 0.750000 104.39999389648438 639)"> ...</text>
  <path d="M178.7999725341797,662.699951171875 C178.7999725341797,675.7891235351562 162.1449737548828,686.3999633789062 141.60000610351562,686.3999633789062 C121.05501556396484,686.3999633789062 104.4000015258789,675.7891235351562 104.39998626708984,662.7000122070312 L104.39998626708984,662.7000122070312 C104.39997100830078,649.61083984375 121.05496215820312,639 141.59994506835938,639 C162.1449432373047,638.9999389648438 178.79995727539062,649.6107788085938 178.7999725341797,662.699951171875 C178.7999725341797,662.699951171875 178.7999725341797,662.699951171875 178.7999725341797,662.699951171875 " stroke="none" fill="none" stroke-width="0.75" stroke-opacity="0" />
  <path d="M268.199951171875,537.8999633789062 C268.199951171875,550.9891357421875 251.5449676513672,561.5999755859375 231,561.5999755859375 C210.4550018310547,561.5999755859375 193.79998779296875,550.9891357421875 193.7999725341797,537.9000244140625 L193.7999725341797,537.9000244140625 C193.79995727539062,524.8108520507812 210.4549560546875,514.2000122070312 230.99993896484375,514.2000122070312 C251.54493713378906,514.199951171875 268.199951171875,524.810791015625 268.199951171875,537.8999633789062 C268.199951171875,537.8999633789062 268.199951171875,537.8999633789062 268.199951171875,537.8999633789062 " stroke="none" fill="#70AECC" fill-rule="evenodd" stroke-width="0" fill-opacity="1" />
  <text x="24.92868995666504" y="35.284881591796875" dx="0" dy="0" font-family="Segoe UI" font-size="8.249999754130847pt" fill="#000000" style="text-anchor:start" transform="matrix(0.750000 0.000000 0.000000 0.750000 193.79998779296875 514.2000122070312)">Twin Falls</text>
  <path d="M268.199951171875,537.8999633789062 C268.199951171875,550.9891357421875 251.5449676513672,561.5999755859375 231,561.5999755859375 C210.4550018310547,561.5999755859375 193.79998779296875,550.9891357421875 193.7999725341797,537.9000244140625 L193.7999725341797,537.9000244140625 C193.79995727539062,524.8108520507812 210.4549560546875,514.2000122070312 230.99993896484375,514.2000122070312 C251.54493713378906,514.199951171875 268.199951171875,524.810791015625 268.199951171875,537.8999633789062 C268.199951171875,537.8999633789062 268.199951171875,537.8999633789062 268.199951171875,537.8999633789062 " stroke="none" fill="none" stroke-width="0.75" stroke-opacity="0" />
  <path d="M112.9039306640625,701.4000244140625 L170.29605102539062,701.4000244140625 L170.29603576660156,701.4000244140625 C174.99261474609375,701.3999633789062 178.7999725341797,705.2073364257812 178.7999725341797,709.9039306640625 C178.7999725341797,709.9039306640625 178.7999725341797,709.9039306640625 178.7999725341797,709.9039306640625 L178.79998779296875,709.9039306640625 L178.79998779296875,740.2960815429688 L178.7999725341797,740.2960815429688 C178.7999725341797,744.99267578125 174.99264526367188,748.7999877929688 170.29605102539062,748.7999877929688 L170.29605102539062,748.7999877929688 L112.9039306640625,748.7999877929688 L112.9039306640625,748.7999877929688 C108.20733642578125,748.7999877929688 104.39999389648438,744.99267578125 104.39999389648438,740.2960815429688 L104.39999389648438,709.9039306640625 L104.39998626708984,709.9039306640625 C104.39998626708984,705.2073364257812 108.20732116699219,701.4000244140625 112.90391540527344,701.3999633789062 " stroke="none" fill="#F2E279" fill-rule="evenodd" stroke-width="0" fill-opacity="1" />
  <text x="5.099189281463623" y="35.284881591796875" dx="0" dy="0" font-family="Segoe UI" font-size="8.249999754130847pt" fill="#000000" style="text-anchor:start" transform="matrix(0.750000 0.000000 0.000000 0.750000 104.39999389648438 701.4000244140625)">Raster to Polyline</text>
  <path d="M112.9039306640625,701.4000244140625 L170.29605102539062,701.4000244140625 L170.29603576660156,701.4000244140625 C174.99261474609375,701.3999633789062 178.7999725341797,705.2073364257812 178.7999725341797,709.9039306640625 C178.7999725341797,709.9039306640625 178.7999725341797,709.9039306640625 178.7999725341797,709.9039306640625 L178.79998779296875,709.9039306640625 L178.79998779296875,740.2960815429688 L178.7999725341797,740.2960815429688 C178.7999725341797,744.99267578125 174.99264526367188,748.7999877929688 170.29605102539062,748.7999877929688 L170.29605102539062,748.7999877929688 L112.9039306640625,748.7999877929688 L112.9039306640625,748.7999877929688 C108.20733642578125,748.7999877929688 104.39999389648438,744.99267578125 104.39999389648438,740.2960815429688 L104.39999389648438,709.9039306640625 L104.39998626708984,709.9039306640625 C104.39998626708984,705.2073364257812 108.20732116699219,701.4000244140625 112.90391540527344,701.3999633789062 " stroke="none" fill="none" stroke-width="0.75" stroke-opacity="0" />
  <path d="M178.7999725341797,787.4999389648438 C178.7999725341797,800.589111328125 162.1449737548828,811.199951171875 141.60000610351562,811.199951171875 C121.05501556396484,811.199951171875 104.4000015258789,800.589111328125 104.39998626708984,787.5 L104.39998626708984,787.5 C104.39997100830078,774.4108276367188 121.05496215820312,763.7999877929688 141.59994506835938,763.7999877929688 C162.1449432373047,763.7999267578125 178.79995727539062,774.4107666015625 178.7999725341797,787.4999389648438 C178.7999725341797,787.4999389648438 178.7999725341797,787.4999389648438 178.7999725341797,787.4999389648438 " stroke="none" fill="#83CC7C" fill-rule="evenodd" stroke-width="0" fill-opacity="1" />
  <text x="2.587022304534912" y="35.284881591796875" dx="0" dy="0" font-family="Segoe UI" font-size="8.249999754130847pt" fill="#000000" style="text-anchor:start" transform="matrix(0.750000 0.000000 0.000000 0.750000 104.39999389648438 763.7999877929688)">vpath_slope_Den</text>
  <text x="83.29985809326172" y="35.284881591796875" dx="0" dy="0" font-family="Segoe UI" font-size="8.249999754130847pt" fill="#000000" style="text-anchor:start" transform="matrix(0.750000 0.000000 0.000000 0.750000 104.39999389648438 763.7999877929688)"> ...</text>
  <path d="M178.7999725341797,787.4999389648438 C178.7999725341797,800.589111328125 162.1449737548828,811.199951171875 141.60000610351562,811.199951171875 C121.05501556396484,811.199951171875 104.4000015258789,800.589111328125 104.39998626708984,787.5 L104.39998626708984,787.5 C104.39997100830078,774.4108276367188 121.05496215820312,763.7999877929688 141.59994506835938,763.7999877929688 C162.1449432373047,763.7999267578125 178.79995727539062,774.4107666015625 178.7999725341797,787.4999389648438 C178.7999725341797,787.4999389648438 178.7999725341797,787.4999389648438 178.7999725341797,787.4999389648438 " stroke="none" fill="none" stroke-width="0.75" stroke-opacity="0" />
</svg>